<svg version="1.1" id="layer" height="24" xmlns="http://www.w3.org/2000/svg" xmlns:xlink="http://www.w3.org/1999/xlink"
    x="0px" y="0px" style="enable-background:new 0 0 652 652;" xml:space="preserve" viewBox="21.2 246.37 600.1 148.65">
    <style type="text/css">
        :root {
            --logo-color: #24292E;
        }

        @media(prefers-color-scheme: dark) {
            :root {
                --logo-color: #fff;
                --logo-text: #fff;
            }
        }

        .st0 {
            fill: var(--logo-color);
        }

        .st1 {
            fill-rule: evenodd;
            clip-rule: evenodd;
            fill: var(--logo-color);
        }
    </style>
    <path class="st0"
        d="M389.1,360.9h-0.2c0.1,0,0.1,0.1,0.2,0.1h0.1L389.1,360.9z M389.1,361c-0.8,0-2.9,0.4-5.1,0.4  c-6.9,0-9.3-3.2-9.3-7.4v-27.8h14.1c0.8,0,1.4-0.7,1.4-1.7v-15.1c0-0.8-0.7-1.5-1.4-1.5h-14.1v-18.8c0-0.7-0.5-1.1-1.3-1.1h-19.2  c-0.8,0-1.2,0.5-1.2,1.1v19.3c0,0-9.7,2.4-10.3,2.5c-0.7,0.2-1.1,0.8-1.1,1.5v12.1c0,1,0.7,1.7,1.5,1.7h9.8v29.2  c0,21.7,15.1,23.9,25.4,23.9c4.7,0,10.4-1.5,11.3-2c0.5-0.2,0.8-0.8,0.8-1.4v-13.3C390.4,361.8,389.9,361.2,389.1,361L389.1,361z   M599.7,341.5c0-16.1-6.5-18.2-13.3-17.5c-5.3,0.3-9.6,3-9.6,3v31.3c0,0,4.3,3,10.8,3.2C596.7,361.7,599.7,358.4,599.7,341.5  L599.7,341.5z M621.3,340.1c0,30.5-9.9,39.2-27.1,39.2c-14.6,0-22.4-7.4-22.4-7.4s-0.3,4.1-0.8,4.6c-0.3,0.5-0.7,0.7-1.3,0.7h-13.1  c-0.9,0-1.7-0.7-1.7-1.5l0.2-98.7c0-0.8,0.7-1.5,1.5-1.5h18.9c0.8,0,1.5,0.7,1.5,1.5v33.5c0,0,7.3-4.7,18-4.7l-0.1-0.2  C605.5,305.6,621.3,309.6,621.3,340.1L621.3,340.1z M543.8,308h-18.7c-1,0-1.5,0.7-1.5,1.7V358c0,0-4.9,3.4-11.6,3.4  c-6.6,0-8.6-3-8.6-9.7v-42.2c0-0.8-0.7-1.5-1.5-1.5h-19c-0.8,0-1.5,0.7-1.5,1.5V355c0,19.5,10.9,24.4,25.9,24.4  c12.4,0,22.4-6.8,22.4-6.8s0.5,3.5,0.7,4c0.2,0.4,0.8,0.8,1.4,0.8h11.9c1,0,1.5-0.7,1.5-1.5l0.2-66.4  C545.5,308.7,544.7,308,543.8,308L543.8,308z M333.2,307.9h-18.9c-0.8,0-1.5,0.8-1.5,1.8v65.2c0,1.8,1.2,2.4,2.7,2.4h17.1  c1.8,0,2.2-0.8,2.2-2.4v-65.5C334.7,308.6,334,307.9,333.2,307.9L333.2,307.9z M323.8,277.8c-6.8,0-12.3,5.4-12.3,12.3  c0,6.8,5.4,12.3,12.3,12.3c6.7,0,12.1-5.4,12.1-12.3C335.9,283.3,330.5,277.8,323.8,277.8L323.8,277.8z M470.4,275.6h-18.8  c-0.8,0-1.5,0.7-1.5,1.5v36.3h-29.4v-36.3c0-0.8-0.7-1.5-1.5-1.5h-18.9c-0.8,0-1.5,0.7-1.5,1.5v98.7c0,0.8,0.8,1.5,1.5,1.5h18.9  c0.8,0,1.5-0.7,1.5-1.5v-42.2h29.4l-0.2,42.2c0,0.8,0.7,1.5,1.5,1.5h18.9c0.8,0,1.5-0.7,1.5-1.5v-98.7  C471.9,276.3,471.2,275.6,470.4,275.6L470.4,275.6z M302.7,319.3v51c0,0.3-0.1,1-0.5,1.1c0,0-11.1,7.9-29.4,7.9  c-22.1,0-48.4-6.9-48.4-52.6c0-45.7,22.9-55.1,45.3-55c19.4,0,27.2,4.4,28.4,5.2c0.3,0.5,0.5,0.8,0.5,1.2L295,294  c0,0.8-0.8,1.8-1.8,1.5c-3.2-1-8-2.9-19.3-2.9c-13.1,0-27.1,3.7-27.1,33.2c0,29.4,13.3,32.9,22.9,32.9c8.2,0,11.1-1,11.1-1v-20.4  h-13.1c-1,0-1.7-0.7-1.7-1.5v-16.4c0-0.8,0.7-1.5,1.7-1.5H301C302,317.8,302.7,318.5,302.7,319.3L302.7,319.3z M302.7,319.3">
    </path>
    <path class="st1"
        d="M97.4,246.4c-42.1,0-76.2,34.1-76.2,76.2c0,33.7,21.8,62.2,52.1,72.3c3.8,0.6,5.3-1.6,5.3-3.6  c0-1.8-0.1-7.8-0.1-14.2c-19.1,3.5-24.1-4.7-25.6-8.9c-0.9-2.2-4.6-9-7.8-10.8c-2.7-1.4-6.5-5-0.1-5.1c6-0.1,10.3,5.5,11.7,7.8  c6.9,11.5,17.8,8.3,22.2,6.3c0.7-4.9,2.7-8.3,4.9-10.2c-16.9-1.9-34.7-8.5-34.7-37.6c0-8.3,3-15.2,7.8-20.5  c-0.8-1.9-3.4-9.7,0.8-20.2c0,0,6.4-2,21,7.8c6.1-1.7,12.6-2.6,19-2.6c6.5,0,12.9,0.9,19,2.6c14.6-9.9,20.9-7.8,20.9-7.8  c4.2,10.5,1.5,18.3,0.8,20.2c4.9,5.3,7.8,12.1,7.8,20.5c0,29.2-17.8,35.7-34.8,37.6c2.8,2.4,5.2,6.9,5.2,14.1  c0,10.2-0.1,18.4-0.1,20.9c0,2,1.4,4.4,5.2,3.6c31-10.5,51.9-39.6,51.9-72.3C173.6,280.5,139.5,246.4,97.4,246.4L97.4,246.4z   M97.4,246.4">
    </path>
</svg>
