<svg version="1.1" id="Ebene_1" height="24" xmlns="http://www.w3.org/2000/svg"
	xmlns:xlink="http://www.w3.org/1999/xlink" x="0px" y="0px" viewBox="0 0 493 111"
	style="enable-background:new 0 0 493 111;" xml:space="preserve">
	<style type="text/css">
		:root {
			--logo-color: #0288D1;
		}

		@media(prefers-color-scheme: dark) {
			:root {
				--logo-color: white;
			}
		}

		.st1 {
			fill: var(--logo-color);
		}
	</style>
	<path class="st1" d="M262.43,40.2h10.03v70h-10.03V79.04h-12.39v31.17h-10.03v-70h10.03v29.99h12.39V40.2z M312.48,49.25
	c0.98,2.16,1.47,4.65,1.47,7.47v36.97c0,2.95-0.49,5.47-1.47,7.57c-0.98,2.1-2.26,3.83-3.83,5.21c-1.64,1.44-3.46,2.52-5.46,3.24
	c-2,0.72-4.02,1.08-6.05,1.08c-2.03,0-4.05-0.36-6.05-1.08c-2-0.72-3.79-1.8-5.36-3.24c-1.64-1.38-2.95-3.11-3.93-5.21
	c-0.98-2.1-1.47-4.62-1.47-7.57V56.72c0-2.82,0.49-5.31,1.47-7.47c0.98-2.16,2.29-3.97,3.93-5.41c1.57-1.38,3.36-2.42,5.36-3.15
	c2-0.72,4.01-1.08,6.05-1.08c2.03,0,4.05,0.36,6.05,1.08c2,0.72,3.82,1.77,5.46,3.15C310.22,45.28,311.5,47.09,312.48,49.25z
	 M303.93,56.72c0-2.43-0.67-4.21-2.02-5.36c-1.34-1.15-2.93-1.72-4.77-1.72s-3.43,0.57-4.77,1.72c-1.35,1.15-2.02,2.93-2.02,5.36
	v36.97c0,2.43,0.67,4.21,2.02,5.36c1.34,1.15,2.93,1.72,4.77,1.72s3.43-0.57,4.77-1.72c1.34-1.15,2.02-2.93,2.02-5.36V56.72z
	 M345.23,40.99c-2.06-0.92-4.34-1.38-6.83-1.38c-2.95,0-5.49,0.51-7.62,1.52c-2.13,1.02-3.88,2.38-5.26,4.08
	c-1.44,1.7-2.52,3.74-3.24,6.1c-0.72,2.36-1.08,4.85-1.08,7.47c0,4.39,0.74,8.05,2.21,10.96c1.48,2.92,4.37,5.26,8.7,7.03l7.18,2.95
	c1.24,0.53,2.24,1.02,3,1.48c0.75,0.46,1.36,1.05,1.82,1.77c0.39,0.72,0.65,1.67,0.79,2.85c0.13,1.18,0.2,2.69,0.2,4.52
	c0,1.57-0.05,3-0.15,4.28c-0.1,1.28-0.41,2.38-0.93,3.29c-0.53,0.92-1.26,1.62-2.21,2.11c-0.95,0.49-2.28,0.74-3.98,0.74
	c-2.56,0-4.38-0.74-5.46-2.21c-1.08-1.47-1.62-3.13-1.62-4.97v-3.15H320.7v3.74c0,2.36,0.44,4.54,1.33,6.54
	c0.89,2,2.08,3.75,3.59,5.26c1.51,1.51,3.31,2.69,5.41,3.54c2.1,0.85,4.36,1.28,6.78,1.28c3.21,0,5.93-0.53,8.16-1.57
	c2.23-1.05,4.03-2.49,5.41-4.33c1.31-1.77,2.26-3.92,2.85-6.44c0.59-2.52,0.89-5.26,0.89-8.21c0-2.56-0.13-4.83-0.39-6.83
	c-0.26-2-0.75-3.78-1.47-5.36c-0.79-1.51-1.87-2.83-3.24-3.98c-1.38-1.15-3.18-2.15-5.41-3l-7.67-3.05
	c-1.31-0.52-2.34-1.05-3.1-1.57c-0.75-0.52-1.33-1.15-1.72-1.87c-0.39-0.72-0.64-1.54-0.74-2.46c-0.1-0.92-0.15-2.06-0.15-3.44
	c0-1.18,0.1-2.31,0.3-3.39c0.2-1.08,0.56-2.05,1.08-2.9c0.52-0.79,1.21-1.44,2.06-1.97c0.85-0.52,1.97-0.79,3.34-0.79
	c2.56,0,4.38,0.84,5.46,2.51c1.08,1.67,1.62,3.65,1.62,5.95v2.26h10.03v-4.92c0-4.06-1.51-7.67-4.52-10.81
	C349.08,43.12,347.3,41.91,345.23,40.99z M359.49,49.64h11.6v60.56h10.03V49.64h11.6V40.2h-33.23V49.64z M398.43,110.2h10.03v-70
	h-10.03V110.2z M441.7,82.38h-0.2L426.36,40.2h-9.64v70h10.03V68.13h0.2l15.34,42.08h9.44v-70H441.7V82.38z M492.99,60.26v-3.54
	c0-2.82-0.49-5.31-1.47-7.47c-0.98-2.16-2.26-3.97-3.83-5.41c-1.64-1.38-3.46-2.42-5.46-3.15c-2-0.72-4.02-1.08-6.05-1.08
	c-2.03,0-4.05,0.36-6.05,1.08c-2,0.72-3.79,1.77-5.36,3.15c-1.64,1.44-2.95,3.24-3.93,5.41c-0.98,2.16-1.47,4.65-1.47,7.47v36.97
	c0,2.95,0.49,5.47,1.47,7.57c0.98,2.1,2.29,3.83,3.93,5.21c1.57,1.44,3.36,2.52,5.36,3.24c2,0.72,4.01,1.08,6.05,1.08
	c2.03,0,4.05-0.36,6.05-1.08c2-0.72,3.82-1.8,5.46-3.24c1.57-1.38,2.85-3.11,3.83-5.21c0.98-2.1,1.47-4.62,1.47-7.57V71.66H475v8.85
	h7.96v13.18c0,2.43-0.67,4.21-2.02,5.36c-1.34,1.15-2.93,1.72-4.77,1.72c-1.83,0-3.43-0.57-4.77-1.72
	c-1.34-1.15-2.02-2.93-2.02-5.36V56.72c0-2.43,0.67-4.21,2.02-5.36c1.34-1.15,2.93-1.72,4.77-1.72c1.84,0,3.43,0.57,4.77,1.72
	c1.34,1.15,2.02,2.93,2.02,5.36v3.54H492.99z M0.01,110.2h30V0.2h-30V110.2z M45.01,110.2h30V0.2h-30V110.2z M185.01,0.2h-15v30h30
	v-15C200.01,6.92,193.3,0.2,185.01,0.2z M185.01,40.2h-25v-40h-15c-8.28,0-15,6.72-15,15v40c0,8.28,6.72,15,15,15h25v40h15
	c8.28,0,15-6.72,15-15v-40C200.01,46.92,193.3,40.2,185.01,40.2z M100.01,0.2h-15v70h15c8.28,0,15-6.72,15-15v-40
	C115.01,6.92,108.3,0.2,100.01,0.2z M130.01,95.2c0,8.28,6.72,15,15,15h15v-30h-30V95.2z" />
</svg>
