<svg xmlns="http://www.w3.org/2000/svg" width="750" height="180" fill="none">
  <style>
    :root {
      --logo-color: currentColor;
    }
  </style>
  <path fill="var(--logo-color)" d="M275.6 70.6a32.5 32.5 0 0 1-21.2 6H230V30h24.5c9.2 0 16.3 2 21.2 6.1 4.8 4 7.2 9.9 7.2 17.2 0 7.5-2.4 13.3-7.2 17.3Zm3.6-38.2c-6-5-14.3-7.4-25-7.4h-30v84.8h5.5v-28H254c10.7 0 19-2.5 25-7.6 6-4.9 9.1-12 9.1-20.9 0-8.8-3-15.9-9-20.8h.1Zm70.8 72.8A37.7 37.7 0 0 1 314.2 82a37 37 0 0 1-2.7-14.7 39 39 0 0 1 5-19.2A39 39 0 0 1 350 29.5c7.3 0 13.9 1.7 19.7 5a35.8 35.8 0 0 1 14 13.6 38.1 38.1 0 0 1 5 19.2 37.5 37.5 0 0 1-38.7 37.9ZM372.6 30a46 46 0 0 0-22.6-5.5c-8.2 0-15.7 1.8-22.4 5.5A41.4 41.4 0 0 0 306 67.3a41.9 41.9 0 0 0 27 40.1c5.4 2 11.2 3 17 2.8a43.2 43.2 0 0 0 38.4-20.9 43.6 43.6 0 0 0 5.7-21.9c0-8-2-15.5-5.7-22a40.2 40.2 0 0 0-15.9-15.3V30Zm31.2 0h30.8v79.8h5.3V30h30.8v-5h-67v5Zm149.1 34.2h-57.5V25H490v84.8h5.5V69.3H553v40.5h5.5V25H553v39.2Zm75.1 41a38.9 38.9 0 0 1-33.7-18.8c-3.3-5.8-5-12.4-4.8-19A37 37 0 0 1 613.2 32c4.7-1.8 9.8-2.7 14.8-2.5 7.2 0 13.8 1.6 19.8 4.9a36.6 36.6 0 0 1 18.9 32.8 36.3 36.3 0 0 1-19 33 39.8 39.8 0 0 1-19.8 4.9h.1ZM650.5 30a45.5 45.5 0 0 0-22.5-5.5c-8.2 0-15.8 1.8-22.4 5.5A41.7 41.7 0 0 0 584 67.3a41.2 41.2 0 0 0 21.6 37.3 45.4 45.4 0 0 0 22.4 5.6c8.3 0 15.8-1.8 22.5-5.4a42 42 0 0 0 21.6-37.4c0-8-1.9-15.5-5.7-22a39.5 39.5 0 0 0-15.9-15.3V30Zm95.2 46c-2.6-2.9-6-5.1-9.6-6.5-4.8-1.7-9.7-3.2-14.7-4.4-4.5-1-9-2.3-13.3-3.9-3.3-1.2-6-3-8.1-5.4a12.7 12.7 0 0 1-3.3-9.2c0-4.9 2.2-9 6-12.2 4-3.3 10.3-5 18.2-5 8 .1 15.9 2.6 22.5 7.2l.6.4 2.4-4.4-.4-.4a36.4 36.4 0 0 0-11.6-5.7 47 47 0 0 0-30 1c-4.3 2-7.6 4.7-9.8 8a19.7 19.7 0 0 0-3.2 11.1c0 5 1.3 9.2 4 12.3 2.6 3 5.9 5.3 9.6 6.7 3.7 1.4 8.6 3 14.8 4.4 5.5 1.4 10 2.7 13.2 3.9 3.3 1 6 3 8.2 5.4 2 2.1 3 5.2 3 9 0 5-2 9-6 12-4.2 3.4-10.5 5-18.7 5-5.5 0-10.8-1-15.7-3-4.8-2-8.8-4.5-11.4-7.7l-.6-.6-3 4 .4.4a32 32 0 0 0 12.9 8.6 48 48 0 0 0 34.1.3A20.3 20.3 0 0 0 749.5 88c.1-4.9-1.2-9-3.8-12Zm-497.3 76h1.3v10.9a14 14 0 0 1-4.6 2.7 16.6 16.6 0 0 1-13.5-1c-2.3-1.2-4.2-3-5.5-5.2a15.4 15.4 0 0 1-1.9-7.6 14 14 0 0 1 7.5-12.8 16 16 0 0 1 7.7-1.8c2.1 0 4 .3 5.8 1a11 11 0 0 1 4.5 2.8l-.8 1a12.7 12.7 0 0 0-9.5-3.5 13.7 13.7 0 0 0-12 6.5c-1 2.1-1.7 4.4-1.7 6.8a13.3 13.3 0 0 0 13.7 13.5c3.7 0 6.6-1.1 8.9-3v-10.4Z"/>
  <path fill="var(--logo-color)" d="M239.4 137.6a14.4 14.4 0 0 0-12.8 7 13.6 13.6 0 0 0-1.8 7.1 13.5 13.5 0 0 0 7.1 12.4 16.2 16.2 0 0 0 13 .9 13 13 0 0 0 4.2-2.6v-10h-.2v10l-.2.2a13.3 13.3 0 0 1-9.3 3.1 14.6 14.6 0 0 1-12.4-6.9 13.4 13.4 0 0 1-1.9-7 13.8 13.8 0 0 1 7-12.1 15 15 0 0 1 7.3-1.9c3.8 0 7 1.1 9.4 3.3l.2-.2a9.5 9.5 0 0 0-4-2.4c-1.8-.6-3.7-.9-5.6-.9Zm0 29.3c-3 0-5.6-.6-8-2a14.7 14.7 0 0 1-7.7-13 14.8 14.8 0 0 1 7.7-13.4 17.4 17.4 0 0 1 14-1c1.8.6 3.4 1.7 4.7 3l.4.4-1.6 1.7-.4-.4a12.4 12.4 0 0 0-9-3.3c-2.5 0-4.8.6-6.9 1.7a12.5 12.5 0 0 0-6.5 11.1 12.9 12.9 0 0 0 6.5 11.3c2.1 1 4.4 1.6 6.8 1.6a12 12 0 0 0 8.4-2.7v-10.5h2.4V163l-.2.1c-3 2.5-6.7 3.9-10.6 4v-.2Zm25.6-21a10 10 0 0 1 5.3-1.3v1.3h-.3c-2.6 0-4.6.8-6 2.4a9.4 9.4 0 0 0-2.2 6.6v11.3h-1.2v-21.6h1.3v5.3a7.8 7.8 0 0 1 3.2-4"/>
  <path fill="var(--logo-color)" d="M269.7 145.2c-1.5 0-3 .4-4.4 1.2-1 .6-1.8 1.5-2.4 2.6l.8-1.1a8 8 0 0 1 6-2.5v-.2Zm-8.7 20.5h.4v-11c0-1 0-1.9.3-2.8l-.3 1v-7.7h-.4v20.5Zm1.5 1.1h-2.6v-22.6h2.5v3.6a9.3 9.3 0 0 1 7.9-3.7h.5v2.4h-.8a7 7 0 0 0-5.6 2.2 9 9 0 0 0-2 6v12.1Zm29.3-6.8v-4.3h-8c-2.3 0-4 .3-5 1a4.4 4.4 0 0 0-1.6 3.6 4.4 4.4 0 0 0 1.8 3.7c1 .9 2.6 1.3 4.7 1.3 3.9 0 6.6-1.8 8-5.3Zm-.8-13.4c1.3 1.3 2 3.3 2 5.8v13.8h-1.4v-4.4a7.7 7.7 0 0 1-3 3.3 9.3 9.3 0 0 1-5 1.2c-2 .1-4-.5-5.7-1.7a5.5 5.5 0 0 1-2.1-4.3 5.4 5.4 0 0 1 1.9-4.3c1.3-1.1 3.3-1.7 6-1.7h8v-2.1c0-2.1-.6-3.8-1.8-4.9a7.3 7.3 0 0 0-5-1.6c-2.8 0-5.6 1-7.7 3l-.8-1.1c1.2-1 2.4-1.8 3.9-2.2 1.4-.7 3-1 4.6-1 2.7 0 4.7.8 6 2"/>
  <path fill="var(--logo-color)" d="M283.8 156.1c-2.2 0-3.6.4-4.6 1a3.6 3.6 0 0 0-1.3 3.2c0 1.4.4 2.5 1.4 3.2 1.3.8 2.9 1.2 4.4 1.1 3.8 0 6.2-1.4 7.5-4.7v-3.8h-7.4Zm0-1.1c-2.6 0-4.5.4-5.6 1.5a4.9 4.9 0 0 0-1.8 3.9c0 1.6.7 3 2 4 1.2 1 3 1.5 5.3 1.5 2 0 4-.5 5.5-1.7a8.9 8.9 0 0 1-5.5 1.5 8 8 0 0 1-5-1.4 5 5 0 0 1-2-4c0-1.6.6-2.9 1.8-3.9 1.1-.8 3-1.4 5.3-1.4h8.5v10.7h.3v-13.3c0-2.4-.6-4.3-2-5.5a8 8 0 0 0-5.4-1.9 12.9 12.9 0 0 0-8 2.8l.2.2c2.2-1.8 5-2.8 7.8-2.7 2.2 0 4 .6 5.2 1.8 1.1 1.1 2 3 2 5.3v2.6h-8.6Zm0 12c-2.6 0-4.7-.6-6.1-1.8a5.9 5.9 0 0 1-2.2-4.8c0-1.9.6-3.5 2-4.7a9.9 9.9 0 0 1 6.3-1.8h7.4v-1.5c0-2-.5-3.5-1.5-4.5-1.1-1.1-2.6-1.5-4.7-1.5-2.7 0-5.3 1-7.3 2.7l-.5.4-1.3-1.8.3-.4c1.1-1 2.5-1.8 4-2.4 1.5-.5 3.2-.8 4.8-.8a8.8 8.8 0 0 1 6.4 2.1c1.5 1.4 2.2 3.4 2.2 6.2v14.4h-2.4v-3c-.6.7-1.3 1.4-2.2 2-1.5.7-3.3 1.1-5.3 1.1v.1Zm35.4-3a9 9 0 0 0 3.3-3.4 10.6 10.6 0 0 0 .1-10 8.8 8.8 0 0 0-8.2-4.8 9.5 9.5 0 0 0-8 4.6c-.8 1.6-1.3 3.4-1.2 5.2 0 1.8.4 3.5 1.2 5a8.8 8.8 0 0 0 8 4.6c1.8 0 3.4-.5 4.8-1.2Zm.8-18c1.6.9 2.8 2.2 3.7 3.9 1 1.7 1.5 3.7 1.4 5.7a10 10 0 0 1-1.4 5.5 11 11 0 0 1-3.7 4c-1.7.9-3.6 1.4-5.6 1.3a9.8 9.8 0 0 1-9.2-6v14h-1.4v-29.6h1.4v5.8a9.9 9.9 0 0 1 9.4-6c2 0 3.7.4 5.4 1.3"/>
  <path fill="var(--logo-color)" d="M314.6 146.5a8.3 8.3 0 0 0-7.8 4.3c-.7 1.5-1 3.1-1 4.8 0 1.7.3 3.2 1 4.7a8.3 8.3 0 0 0 7.8 4.3 8.4 8.4 0 0 0 7.7-4.3c.5-1.4 1-3 1-4.8 0-1.6-.4-3.3-1.1-4.8a8.3 8.3 0 0 0-7.8-4.3h.2Zm-.2 19.2a9.6 9.6 0 0 1-8.4-4.9 9.3 9.3 0 0 1-1.4-5.3 10.4 10.4 0 0 1 5-8.9 9.4 9.4 0 0 1 4.8-1.2 9.4 9.4 0 0 1 8.5 4.9 11.6 11.6 0 0 1 .1 10.5 9.3 9.3 0 0 1-8.6 5Zm-10 8.1h.2v-15.7l1.1 2.2a9.1 9.1 0 0 0 8.7 5.6 10 10 0 0 0 5.2-1.4c1.6-.8 2.8-2 3.7-3.6.8-1.5 1.3-3.3 1.3-5.5a11 11 0 0 0-1.3-5.3 9.5 9.5 0 0 0-8.9-5 9.4 9.4 0 0 0-8.8 5.7l-1 2.3v-7.8h-.3v28.5Zm1.3 1.1h-2.4v-30.6h2.3v4.4a10.7 10.7 0 0 1 8.8-4.5c2-.2 4 .3 5.8 1.3 1.7 1 3.1 2.4 4 4.1a12 12 0 0 1 1.5 6c0 2.1-.6 4.1-1.6 5.9a10.7 10.7 0 0 1-9.5 5.4 11 11 0 0 1-6-1.6 9.8 9.8 0 0 1-2.9-2.7v12.3Zm44.5-28c1.6 1.5 2.4 3.8 2.4 6.7v12.7h-1.4v-12.6a8 8 0 0 0-2-5.8 7.4 7.4 0 0 0-5.5-2c-2.7 0-4.8.8-6.3 2.3a8.8 8.8 0 0 0-2.4 6.5v11.5h-1.4v-30.7h1.4v14.2a8.9 8.9 0 0 1 3.4-3.8c1.5-1 3.3-1.4 5.5-1.4 2.7 0 4.8.8 6.3 2.3"/>
  <path fill="var(--logo-color)" d="M334.2 165.7h.3v-11c0-1.2.1-2.3.4-3.3l-.4 1v-16.3h-.3v29.6Zm17.6 0h.3v-12a9 9 0 0 0-2.2-6.5 8.2 8.2 0 0 0-6-2.2 10 10 0 0 0-5.2 1.5c-1 .5-2 1.4-2.6 2.4l.8-1.1a9 9 0 0 1 6.8-2.4c2.6 0 4.6.6 6 2.2a8.7 8.7 0 0 1 2 6v12.1Zm1.3 1.1h-2.4v-13.1c0-2.4-.6-4.3-1.8-5.5a7.1 7.1 0 0 0-5.2-1.8c-2.5 0-4.6.7-6 2.1a8.3 8.3 0 0 0-2.2 6.2v12H333V135h2.4v12.9c.8-.9 1.5-1.8 2.6-2.3a10 10 0 0 1 5.8-1.5c2.8 0 5 .8 6.8 2.5a9.6 9.6 0 0 1 2.4 7v13.2Zm11.1-8.3c1.2 2.2 2.9 3.7 5 5a14.8 14.8 0 0 0 13.9 0 13 13 0 0 0 6.8-11.8 13.3 13.3 0 0 0-6.8-11.6 14.4 14.4 0 0 0-14 0 13 13 0 0 0-6.6 11.6c0 2.5.5 4.8 1.7 7v-.2Zm28.3 10a8.7 8.7 0 0 1-6.7 3.2c-1.5 0-3-.5-4.5-1.3a22 22 0 0 1-4.8-3.9h-.4a15 15 0 0 1-7.7-2 16 16 0 0 1-5.5-5.2 15.4 15.4 0 0 1 .1-15c1.3-2.3 3.2-4.1 5.5-5.4a17 17 0 0 1 15.5 0 14.8 14.8 0 0 1-5.7 27.5c2.6 2.6 5.1 4 7.5 4a8 8 0 0 0 6-3l.7 1Z"/>
  <path fill="var(--logo-color)" d="M376.2 138.8a14 14 0 0 0-6.8 1.8 12.6 12.6 0 0 0-6.4 11.1 12.8 12.8 0 0 0 6.4 11.3c2 1 4.3 1.6 6.7 1.6a12.6 12.6 0 0 0 12.4-7.8c.6-1.6 1-3.3.8-5a12.9 12.9 0 0 0-6.4-11.2 14 14 0 0 0-6.7-1.8Zm0 27a14.4 14.4 0 0 1-12.4-7 13.5 13.5 0 0 1-1.9-7 13.8 13.8 0 0 1 7-12.1 15 15 0 0 1 14.4 0 13.6 13.6 0 0 1 7 12 13.9 13.9 0 0 1-6.9 12 14 14 0 0 1-7.3 2h.1Zm0-28.2c-2.7 0-5.3.6-7.6 1.9a12 12 0 0 0-5.1 5 14.8 14.8 0 0 0 0 14.6c1.2 2.1 3 3.8 5.1 5 2.3 1.2 5 1.9 7.5 1.8h.6v.2a22 22 0 0 0 4.8 3.8 8.1 8.1 0 0 0 7.7.4c1-.4 2-1 2.7-1.8l-.1-.3a8 8 0 0 1-6 2.8c-2.6 0-5.3-1.5-8-4.4l-.6-.7h1.1a14.4 14.4 0 0 0 10.8-7.4c1.1-2 1.7-4.4 1.7-6.8a13.7 13.7 0 0 0-7.2-12.3 14.9 14.9 0 0 0-7.5-1.8Zm9.5 34.6a10 10 0 0 1-4.7-1.3 23 23 0 0 1-4.8-4c-3 0-5.7-.6-8-2a15.2 15.2 0 0 1-5.6-21c1.3-2.1 3.3-4.1 5.5-5.4a17 17 0 0 1 8-2 15.4 15.4 0 0 1 14 22.3 15.2 15.2 0 0 1-10.7 8c2.2 2.1 4.4 3 6.4 3 2.2 0 4-.8 5.5-2.6l.5-.5 1.4 1.7-.2.4a9.2 9.2 0 0 1-7.2 3.4Zm15-35h1.4V165h17.1v1.3h-18.5v-29.2Z"/>
  <path fill="var(--logo-color)" d="M401.2 165.7h17.6v-.2h-17.2v-27.8h-.4v28Zm18.6 1.1H400v-30.2h2.6v27.8h17v2.4Zm16.1-13.3h313v-2.2H436v2.2ZM180.7 94l-1.4 3.3a60.8 60.8 0 0 1-3.9 6.4v.2l-.3.3-.2.3a82.2 82.2 0 0 0-3.3 5.7 55.1 55.1 0 0 1-3.5-12l-.6-1.9-.8-2c-1.5-3.9-3-7.6-.2-11.1l.5-.4.6-.5 1-.2h.5c1.5 4.4 1.9 9 1 13.6 0 .5.3 1 .8 1h.2c.5 0 1.2-.3 1.2-1 .5-4.7.7-9.8-1.2-14.4l.4-.7.2-.5.2-.3c.4-.5.9-.9 1.3-1h.5l.4.1.5.1.5.3c.8.4 1.6.9 2.2 1.5a12.2 12.2 0 0 1 4 9c0 1.4-.2 3-.6 4.3Zm-24.9 48.6-7 4.7-1.7 1.1-3 2-1 .7.3-.4c2.5-4.6 6.4-7 10.5-7h.2c.4 0 .9-.4 1-1v-.2c0-.4-.1-.7-.6-.9a32.9 32.9 0 0 0-31.3 2c-4.6 3-9.9 7.5-9.3 12.7.3 3.3 2.4 5.5 6.3 7l-18.3 6.5h-.1a5.6 5.6 0 0 0-8.1-1.3c-.8.6-1.5 1.4-1.9 2.4a60 60 0 0 1-11.7-3.3l.3-.1h.2l.3-.3.1-.2.3-.3v-1c0-.3-.1-.5-.4-.7-.1-.2-.4-.3-.6-.4h-.5c-2.2 0-4-.7-6-2a34 34 0 0 1-6.8-7.3l-1.2-1.4c-1.6-2-3.3-3.8-5.2-5.6-1.3-1-2.8-1.8-4.4-2.2h-2v.2c-.3 0-.6.2-1 .4a5.9 5.9 0 0 0-1.7 2.2v.5l-.2.2-.1.4c-1.1-1.1-2.4-2-3.5-2.7l-5-3-2.4-1.5c-4.6-2.9-8.5-5.5-12.1-8.4a5 5 0 0 0-3-8.2 39.6 39.6 0 0 1-1.8-19.9c.8-8.1 1.1-14.7 1.1-20.8l1.5-2.2c2.3-4 2.7-9.4 1-13.4-.5-1.2-1.1-2.5-2.1-3.5v-.8a57.9 57.9 0 0 1-1.5-15.9h.7a4.2 4.2 0 0 0 4-3c.2-.6.3-1.2.2-1.8a49.2 49.2 0 0 1 22 0c2.9.9 6 2.2 9.5 4.4-.8.1-1.6.3-2.3.6-2.9 1.2-5 3.6-6.9 5.7a1 1 0 0 0-.2 1c0 .2.4.4.6.4 5.4.9 11-.2 15.6-3 .2 0 .4-.2.5-.5 1.2.7 2.6 1.1 4 1.4l2.3.2c1.5.2 3 .3 4.3.7 2.2.7 4.2 2 5.9 3.5 2.7 2.5 5.2 5.6 7.4 9.8l.3.8-.2-.3c-2-1.3-4.3-2-6.6-2h-1v-.2.3h-1a1 1 0 0 0-.7.5c-.3.7 0 1.5.4 2.2v.1a18 18 0 0 0 4.8 6.6c1.1 1 2.2 2 4 2.5l1.4.2 2.6.7.3 2.2c.6 4.1 1 8.3 1 12.4h-2.5c-4.2 0-8.5.2-12.8.4h-.6c-1.2 0-2.8 0-3.5.7-1.1 1.2-.4 3.8.6 6.8l.4 1.2c1.2 5.1 2.6 10.1 4.1 15.1 1.1 3.2 2.1 6.4 2.8 9.7l.2.8c.1 1.1.3 2.4 1.2 3.3l.4.1c1 .7 2.6.8 4 .8h1.2c3.8.4 7.6.5 11.4.2h4.4c2 .1 4 .2 6 0l.8-.2v-.8c0-2.4.7-4.8 1.2-7l6.4-25 .4-.8c.5-1.6 1-2.9.6-3.6-.4-1.3-1.7-1.3-2.4-1.3h-.3l-19.8-.4c2.8-1.3 5.2-3.2 7.2-5.4 1.1-1.5 1.8-2.8 2.2-4.2l.4-3.3.2-2.2c0-.3 0-.6-.4-.8-.2-.3-.4-.3-.7-.1-2.4.8-4.6 2-6.7 3.3a51.4 51.4 0 0 1 14-22.5c1.1-1 2.7-1.5 4.2-2.2 1.5-.4 2.9-1 4.2-2a32 32 0 0 0 4-3.8 61 61 0 0 1 2-2c4.8-4.5 12.2-4.9 18-4.8 7.5.1 14.7 2.4 21 6.4a4 4 0 0 0 3.5 2.8c.2 4 0 8.2-.4 12.2v.4a17.8 17.8 0 0 0-3.5 5.3l-.2.4c-.6 1-1.1 2.2-1.3 3.3v2.2l.2.5.1.6h-.4a5 5 0 0 0-2.5 1l-.3.2c-.9.8-1.6 1.8-2 2.8v.1l-.2.2a10 10 0 0 0-.8 6.4c.4 1.5 1 3 1.6 4.4.4 1 .9 2.2 1 3.4l.3.3 1.1 4.4c.9 4.1 2.3 8.1 4.2 11.9v.5h.3a1.3 1.3 0 0 0 1.3.5c.3 0 .4 0 .6-.2l.5-.7v-.3l.4-.1-.2-.4.6-2.3c-.1 2.3-.2 4.6-.1 6.8 0 3.2 0 6.5-.7 9.5a5 5 0 0 0-3 5c.1.7.3 1.3.6 2-5 2.1-10.1 4.9-15 8Zm-16.2 11-.4.2v.2l-.1.2-.6 1.4v.5l.2.3a22 22 0 0 1-2.7 6.2 6 6 0 0 1-4.2 3c-1.4 0-3.3-.4-3.8-2v-.2l-.2-.2v-.2c0-2.2.4-5 1.4-7 1-2 2.6-3.7 4.2-5.4.3-.2.4-.4.3-.7 0-.3 0-.6-.2-.7-.5-.4-1.1-.5-1.6 0a21.2 21.2 0 0 0-4.7 6 22 22 0 0 0-1.5 7.1h-.5l-.2-.3h-1.5c-1.6-.2-3.3-.6-4.9-1.7-2.5-1.9-3.3-4.6-2-7.3 2.2-4.6 7.6-7.6 10.6-9.2a30.8 30.8 0 0 1 23-1.7c-5.6 1.8-8.9 7.4-10.2 10.7l-.2.6h-.2v.2ZM20 87.5h1v2.2l-1-2.2Zm35-63.3 1.4-.8-.2.3-.2.3h-.2c-1 1-2 1.6-3 2.2.6-.7 1.4-1.4 2.3-2Zm84-12.3c.2-.3.4-.4.6-.5 1.6 0 3.6 1.4 5.9 4.2 2 2.3 3.6 5 4.8 7.7l.5.9c1 2.2 2 4.3 3.3 6.1l-.5-.2c-1.5-.5-2.7-.9-4-1-1.7-.4-3.4-.4-5.1-.4-3.5 0-7-.8-10.2-2.3a3.8 3.8 0 0 1-1.7-3.4v-.4c0-1.6.6-3 1.6-4.2l.3-.3.3-.2.3-.3c.5-.2.9-.3 1.6-.3h.6l.7.2c1 1.7 2.4 3 4 4.4l.7.2.7-.3c.2-.2.3-.4.3-.8 0-.3-.1-.5-.3-.6a19 19 0 0 1-3.9-4.4v-.2c-.4-.9-.7-1.9-.7-2.9l.2-1ZM62.3 22l.8-.4.4-.2h.1l.3-.2.8-.5c1.8-.2 3.4-.9 5.1-1.6 2-1 3.9-2.1 5.9-3.3.3-.2.5-.6.5-1 0-.3-.2-.8-.7-.9a.7.7 0 0 0-.8 0 27 27 0 0 1-11.4 5H63l-1-.3h-.5c-1-.4-2-1-2.2-1.7-.2-.2-.2-.5-.2-.8 0-.3 0-.8.4-1.2 1.2-2.7 5-3.2 7.7-3.4l3-.2c3.6-.3 7.2-.6 10.5-1.9l-.4 2.4v.6l-.5 2.2c-.3 1.4-.5 2.8-1.3 4.2a24 24 0 0 1-3.3 5 21.4 21.4 0 0 1-9.4 7c-1.7.6-3.6.6-5.5.2-1.6-.4-2.4-1.5-2.4-3l.1-1.2v-.4l.2-.3v-.3l.3-.3v-.2l.4-.4v-.1c1-1.2 2.2-2.2 3.5-2.8ZM5 60.5l.6-3.5 2 1.6.5.4.3.2c1.4 1.1 3 2 4.7 2.5 3 1.3 5.8 3 8.3 5l.2.3.6.7h.1l.2.3c1.8 2.2 2.8 5 2.7 7.9 0 2.2-.7 4.2-1.5 6-.5.9-1.2 1.6-2 2.3 0 .2-.1.2-.3.3h-.2c-.2.1-.5.2-.7.1-.7-.2-1.1-1-1.5-2l-.2-.7v-.2l-.6-1.9-.6-2.4c-.4-1.5-.9-3-1.5-4.4-.3-.4-.7-.7-1.1-.7-.6 0-1.1.2-1.4.6-.3.4-.3.9 0 1.4a27 27 0 0 1 1.4 4l.5 2.2.6 2v.4c-.1 1.7-1 4-3.6 4a9 9 0 0 1-4.8-1.5c-2.5-1.8-4-5-4.2-9.3-.1-5.2.4-10.5 1.5-15.6ZM57.7 52c.8-.4 1.9-.8 3-.9l-2.2 1.3c-.5.4-.5 1-.3 1.4.3.3.7.5 1.2.2l.2-.1a7.4 7.4 0 0 1 3.5-1.7c.8 0 1.5.2 2 .9-3.7 2-8 3-12.1 2.6 1.4-1.4 2.8-2.8 4.7-3.7Zm27.5 17.5 1 .1 1.8.6c1.9.7 4 2.2 5.3 4.4l.9 2.7-3.7-3c-.3-.3-.7-.3-1 0-.2.3-.3.7 0 1l4 3.2-.7-.1-.6-.1-2.2-.7-1.8-1.5a22.6 22.6 0 0 1-4.5-6.3v-.2h1.5Zm8.2-29.8a17 17 0 0 1 3.5 3.3c.5.8 1 1.6 1.1 2.4 0 .4 0 1.1-.4 1.4h-.4a23.4 23.4 0 0 0-6.1-6.7c-.4-.4-.8-.4-1.1 0-.2.2-.2.6 0 1a22 22 0 0 1 5.8 6l-.1.3c-.6 1.3-2.2 1.6-3.4 1.2-1.7-.5-2.7-2.2-3.3-3.6l-.8-2.6c-.7-2.3-1.6-4.4-2.9-6.4 3.3 1.1 6 2.2 8 3.7ZM108.6 82a11.6 11.6 0 0 1-2.2 6.8 18 18 0 0 1-4.6 3.8c1-1.6 2-3.3 3.3-4.8.3-.3.3-.8 0-1.1a1 1 0 0 0-1 0l-3.2 4.7c.2-1.9.5-3.7 1-5.5.6-1 1.5-1.8 2.6-2.3l4-2.2v.6Zm-57.4 73c3.5 3.7 8 6.6 13 8.1h.4c.3 0 .6 0 .8-.2.3-.3.4-.8.3-1.3 0-.4-.4-.7-.8-1a28.7 28.7 0 0 1-11.7-7v-1.1l.4-.8v-.3l.2-.4c.3-.6.6-1.7 1-2 .7-.3 1.8 0 3.3 1l1.5 1.2c2.2 1.7 3.8 4 5.4 6.1l.7.9a28 28 0 0 0 8 7.5l-5.1.4h-.1a46 46 0 0 1-18.7-4.2l-.6-.5a4 4 0 0 1-1-4 3.5 3.5 0 0 1 3-2.4Zm83-140.1h-.3.3Zm-16 93.3-4.4 17.5a39 39 0 0 0-1.4 6.8c-1.5.2-3.2 0-4.8 0-1.6-.2-3.2-.2-4.7 0-5.2.4-10.4.2-15.5-.7-.4-.3-.6-1.4-.6-2.2l-.2-1c-.8-3.3-2-6.5-3-9.8l-2.1-7-.9-4h.6l3.5.1 18 .3h8.9c1.5 0 3 .2 4.4 0h2.2Zm1-3.9h-.5c-2 .2-3.8.5-5.7.5-5.7.2-11.4-.3-17-.5l-8.6-.2-7.7.6v-.8l-.5-1.3c-.4-1.1-1.3-4.4-1-5 .3-.3 1.5-.2 2-.2h.8l4.2-.2h8.5c8.8 0 17.6 0 26.5.2h1l-.6 2.4-.4 1.1-1 3.4Zm6.9-52.5L125 53l-.6.4c.6-2.4.8-4.9.6-7.4 0-.9-1.4-.9-1.3 0 0 2.7 0 5.5-1 8.2-.3-.1-.8-.9-1-3.8v-.2c0-1.6 0-3.2.4-4.8l1-2.8 1-3.3.2.6a15 15 0 0 1 3.3 7.4c0 1.6-.5 3.2-1.5 4.4Zm26.4-8.4c-4.4-.5-13-.8-19.2 2.4-1.6.7-2.8 1.8-4 3v-.3c.1-1.7-.2-3.8-1.2-6l-2.2-3.6-1.8-2.7c-.2-.4-.8-.5-1-.4-.4.2-.6.4-.6.9v.2c.2 1.9-.5 3.6-1.1 5.3a18.1 18.1 0 0 0-1 11 3 3 0 0 0 1 2.2l-2 .9-2.2.8a23 23 0 0 0-7 6.6 51 51 0 0 0-8.9 16.1c.9-10.7.9-21.8-3.3-31.6l.5-.1a3 3 0 0 0 1-3c-.2-2.2-2-4.1-3.3-5.5a33 33 0 0 0-12.6-6c-.3 0-.8 0-1 .2a.9.9 0 0 0 0 1.1c1.6 2.5 3 5.2 3.8 8 .6 1.7 1.1 3.3 2 4.8.8 1 2.5 2.8 4.8 2.8 1.1 0 2.2-.4 3-1.1a57.2 57.2 0 0 1 3.2 22.9c-.2 5.8-.7 11.7-1.5 17.5-.3-5.3-.8-10.8-2.6-15.9-2.2-6.4-6-12.2-11.2-16.8a17 17 0 0 0-8.3-3.7l-2.2-.3a17.1 17.1 0 0 1-8.9-2.8c-5.4-4-11.6-6.8-18.2-8-5-.7-10.2-.7-15.2 0C35 39.6 39 37 42.9 34.6c1.5-.9 3-1.5 4.6-2.2l3.1-1.4a19 19 0 0 0 4.3-2.6 5.6 5.6 0 0 0 4 5.1c1.1.3 2.2.6 3.3.6 2.9 0 5.5-1.1 6.7-1.8 3.3-1.7 6.1-4.1 8.4-7 2.9-3.5 4.4-6.6 5-9.9v-1.2h.2v-.3a78 78 0 0 1 14.3-7.6 4.4 4.4 0 0 0 3.6 2.6 4.4 4.4 0 0 0 4.1-1.9c3.6 1.6 7.4 2.8 11.2 4l1 .3c5 1.7 9.8 3.7 14.5 6.1l-.8 1.5c-1.3 3.3-1.1 7.7 2.2 9.7 4 2.5 8.8 2.7 12.1 2.7 2.4 0 5 .5 7.6 1.4l.2.3 18.1 15-.6 1.2a43 43 0 0 0-17.5-5.8Zm17.3 34.3V77c0-1.1.5-2.2 1-3.3l.2-.4c.6-1.2 1.1-2.4 2-3.4 0 2-.3 4.1-.2 6.2l-1.1.3c-.7.3-1.4.8-1.9 1.4Zm14.1 10c-.3-3-1.7-6-3.8-8.1l-.1-.1-1.5-1.4-.2-.2-.8-.6-.4-.2-.1-.1-.8-.5c0-3.3.2-6.8.5-9.8v-.1c.3-4.4.6-8.8.2-13.3a4 4 0 0 0-3-7l-14.6-12.2c.2-.6.2-1.1-.3-1.6a38 38 0 0 1-6-9.6l-.1-.3-2.2-4.3a30.6 30.6 0 0 0-4.4-6c-1.7-1.7-4.1-3.7-6.9-3.7h-.4c-1.1.2-2 .7-2.4 1.6-1 1.2-.8 2.7-.6 4a15.7 15.7 0 0 0-8.5-2 82 82 0 0 0-9.9-4l-.8-.3c-4-1.3-7.9-2.5-11.6-4.2A4.4 4.4 0 0 0 101 .2a4.4 4.4 0 0 0-4.4 3.2A79 79 0 0 0 83 10.2v-.3c.2-.8.4-2.1.8-2.4.6-.6.5-1.5 0-2-.4-.6-1.2-.7-1.7-.2-3 2-6.7 2.6-10.3 3h-2.4c-2.9.3-5.7.4-8.4 1.5-3 1-5.7 4.1-4.8 7.6a4.8 4.8 0 0 0 2.7 3.2v.1a14 14 0 0 0-7.7 4.9L50 27.8l-.3.1-1 .6h-.4l-1.7.8-.4.3a31 31 0 0 0-5.5 2.7c-4.8 3-9.6 6.3-14.3 9.6l-.3.3c-.6-.4-1.2-.6-2-.6a4.2 4.2 0 0 0-4 3.3 3 3 0 0 0 0 1.9l-.2.5c0 4.2 0 8.1.2 12v1.1l.4 2.1c-2-1.3-4-2.4-6.2-3.3a19 19 0 0 1-4.8-2.7 10 10 0 0 0-.8-.6c-1-.7-2.7-2-2.7-2.7v-.8h-.2c-.2-.3-.6-.6-1-.6a2 2 0 0 0-1.4.6h-.2v.7a77 77 0 0 1-1.1 7v.6C1.6 63.4 1 66 1 69c-.6 4.1-1 9 .9 13.3a11.5 11.5 0 0 0 10.7 7.4c1.5 0 2.7-.4 3.5-1.1.6-.4 1-1 1.5-1.7 2.2 3.7 2.5 7.5 2.4 11.7 0 2.4 0 4.7-.2 7v1.5l-.1.7v.7c-.6 4.8-.7 12 1.9 18.6a5 5 0 0 0 2.6 9.3h.7c4.2 3.5 8.5 6.3 12.3 8.8l3.1 1.8.8.6c1 .5 2 1 3 1.8l1 .6a29 29 0 0 1 3.9 2.8l-.4.2-1.4 1c-.9.6-1.6 1.6-2 2.8-.3.8-.3 1.8-.2 2.8.6 4 4.4 5.7 8 6.8a50 50 0 0 0 21.7 2.2 53.1 53.1 0 0 0 16.7 5.3 5.6 5.6 0 0 0 3.8 5 5.7 5.7 0 0 0 7.2-3.6c.2-.7.3-1.4.2-2.1v-.7h.1l21.9-8 .4-.2.9.1a5.4 5.4 0 0 0 5.2 3.2h.8c2.8-.3 5.1-2.3 6.8-5.7l1.7-4.6h.2l.4-.1.2-.2 4.7-3.3.4-.1 2.5-1.7 2.2-1.5 6.2-4.2a128 128 0 0 1 17.1-9h.8a5 5 0 0 0 5-4.2 5 5 0 0 0-3.4-5.6c.5-3 .5-6.2.5-9.4v-1a55 55 0 0 1 1.1-12.8c2-2.9 3.7-6 5-9.3v-.1c.7-2.4 1-4.7.6-7"/>
</svg>
