<?xml version="1.0" encoding="UTF-8" standalone="no"?>
<svg
   xmlns:dc="http://purl.org/dc/elements/1.1/"
   xmlns:cc="http://creativecommons.org/ns#"
   xmlns:rdf="http://www.w3.org/1999/02/22-rdf-syntax-ns#"
   xmlns:svg="http://www.w3.org/2000/svg"
   xmlns="http://www.w3.org/2000/svg"
   xmlns:sodipodi="http://sodipodi.sourceforge.net/DTD/sodipodi-0.dtd"
   xmlns:inkscape="http://www.inkscape.org/namespaces/inkscape"
   version="1.1"
   id="svg2"
   xml:space="preserve"
   width="1440"
   height="1440"
   viewBox="0 0 1440 1440"
   sodipodi:docname="Logo.ai"><metadata
     id="metadata8"><rdf:RDF><cc:Work
         rdf:about=""><dc:format>image/svg+xml</dc:format><dc:type
           rdf:resource="http://purl.org/dc/dcmitype/StillImage" /></cc:Work></rdf:RDF></metadata><defs
     id="defs6"><clipPath
       clipPathUnits="userSpaceOnUse"
       id="clipPath18"><path
         d="M 0,1080 H 1080 V 0 H 0 Z"
         id="path16" /></clipPath></defs><sodipodi:namedview
     pagecolor="#ffffff"
     bordercolor="#666666"
     borderopacity="1"
     objecttolerance="10"
     gridtolerance="10"
     guidetolerance="10"
     inkscape:pageopacity="0"
     inkscape:pageshadow="2"
     inkscape:window-width="640"
     inkscape:window-height="480"
     id="namedview4" /><g
     id="g10"
     inkscape:groupmode="layer"
     inkscape:label="Logo"
     transform="matrix(1.3333333,0,0,-1.3333333,0,1440)"><g
       id="g12"><g
         id="g14"
         clip-path="url(#clipPath18)"><g
           id="g20"
           transform="translate(449.6079,557.3369)"><path
             d="m 0,0 c -4.437,-3.697 -10.896,-5.571 -19.199,-5.571 h -22.346 v 42.623 h 22.346 C -10.896,37.052 -4.437,35.177 0,31.48 4.4,27.813 6.632,22.536 6.632,15.795 6.632,8.982 4.4,3.667 0,0 Z M 3.265,34.853 C -2.165,39.396 -9.796,41.7 -19.417,41.7 H -46.52 v -77.514 h 4.975 v 25.595 h 22.128 c 9.621,0 17.252,2.304 22.682,6.847 5.463,4.571 8.233,11.019 8.233,19.167 0,8.075 -2.77,14.487 -8.233,19.058"
             style="fill:#5e8549;fill-opacity:1;fill-rule:nonzero;stroke:none"
             id="path22" /></g><g
           id="g24"
           transform="translate(517.2158,525.7344)"><path
             d="m 0,0 c -6.54,0 -12.536,1.512 -17.823,4.493 -5.286,2.98 -9.511,7.152 -12.56,12.401 -3.051,5.247 -4.598,11.186 -4.598,17.651 0,6.463 1.547,12.402 4.598,17.652 3.049,5.249 7.275,9.421 12.56,12.4 5.286,2.981 11.283,4.493 17.823,4.493 6.54,0 12.555,-1.512 17.879,-4.493 5.318,-2.979 9.561,-7.151 12.613,-12.4 3.05,-5.253 4.598,-11.192 4.598,-17.652 0,-6.462 -1.548,-12.4 -4.598,-17.651 C 27.442,11.645 23.198,7.473 17.879,4.493 12.554,1.512 6.539,0 0,0 M 20.458,68.648 C 14.36,72.025 7.478,73.737 0,73.737 c -7.479,0 -14.344,-1.712 -20.405,-5.09 -6.065,-3.382 -10.891,-8.116 -14.345,-14.068 -3.454,-5.951 -5.205,-12.691 -5.205,-20.034 0,-7.342 1.751,-14.082 5.205,-20.033 3.455,-5.955 8.281,-10.689 14.345,-14.069 6.058,-3.378 12.923,-5.09 20.405,-5.09 7.48,0 14.363,1.712 20.458,5.089 6.098,3.379 10.943,8.113 14.401,14.07 3.454,5.954 5.205,12.694 5.205,20.033 0,7.339 -1.751,14.08 -5.205,20.034 -3.457,5.954 -8.302,10.688 -14.401,14.069"
             style="fill:#5e8549;fill-opacity:1;fill-rule:nonzero;stroke:none"
             id="path26" /></g><g
           id="g28"
           transform="translate(565.9199,594.3892)"><path
             d="m 0,0 h 27.992 v -72.867 h 4.865 V 0 H 60.849 V 4.647 H 0 Z"
             style="fill:#5e8549;fill-opacity:1;fill-rule:nonzero;stroke:none"
             id="path30" /></g><g
           id="g32"
           transform="translate(701.4121,563.2026)"><path
             d="m 0,0 h -52.207 v 35.834 h -4.975 V -41.68 h 4.975 V -4.648 H 0 V -41.68 H 4.975 V 35.834 H 0 Z"
             style="fill:#5e8549;fill-opacity:1;fill-rule:nonzero;stroke:none"
             id="path34" /></g><g
           id="g36"
           transform="translate(769.5757,525.7344)"><path
             d="m 0,0 c -6.54,0 -12.535,1.512 -17.822,4.493 -5.287,2.98 -9.512,7.152 -12.561,12.401 -3.051,5.247 -4.597,11.186 -4.597,17.651 0,6.463 1.546,12.402 4.597,17.652 3.049,5.249 7.275,9.421 12.561,12.4 5.285,2.981 11.282,4.493 17.822,4.493 6.54,0 12.555,-1.512 17.879,-4.493 5.318,-2.979 9.561,-7.151 12.613,-12.4 3.051,-5.253 4.598,-11.192 4.598,-17.652 0,-6.462 -1.547,-12.4 -4.598,-17.651 C 27.442,11.645 23.198,7.473 17.879,4.493 12.554,1.512 6.539,0 0,0 M 20.458,68.648 C 14.36,72.025 7.478,73.737 0,73.737 c -7.479,0 -14.344,-1.712 -20.405,-5.09 -6.065,-3.382 -10.891,-8.116 -14.345,-14.068 -3.454,-5.951 -5.205,-12.691 -5.205,-20.034 0,-7.342 1.751,-14.082 5.205,-20.033 3.455,-5.955 8.281,-10.689 14.345,-14.069 6.058,-3.378 12.924,-5.09 20.405,-5.09 7.48,0 14.363,1.712 20.458,5.089 6.098,3.379 10.943,8.113 14.401,14.07 3.454,5.954 5.205,12.694 5.205,20.033 0,7.339 -1.751,14.08 -5.205,20.034 -3.457,5.954 -8.302,10.688 -14.401,14.069"
             style="fill:#5e8549;fill-opacity:1;fill-rule:nonzero;stroke:none"
             id="path38" /></g><g
           id="g40"
           transform="translate(876.4146,552.2539)"><path
             d="m 0,0 c -2.345,2.717 -5.271,4.756 -8.697,6.06 -3.353,1.274 -7.847,2.62 -13.363,3.999 -5.035,1.222 -9.094,2.423 -12.066,3.57 -2.908,1.12 -5.395,2.771 -7.388,4.906 -1.946,2.082 -2.934,4.923 -2.934,8.443 0,4.495 1.845,8.268 5.483,11.214 3.679,2.978 9.206,4.488 16.428,4.488 3.475,0 7.058,-0.559 10.65,-1.661 3.585,-1.102 6.874,-2.737 9.778,-4.861 l 0.581,-0.425 2.25,4.049 -0.435,0.334 c -2.876,2.212 -6.407,3.969 -10.493,5.223 -4.074,1.247 -8.259,1.879 -12.44,1.879 -5.875,0 -10.855,-0.917 -14.805,-2.726 -3.982,-1.824 -6.987,-4.305 -8.931,-7.371 -1.945,-3.066 -2.931,-6.479 -2.931,-10.143 0,-4.641 1.225,-8.409 3.64,-11.2 2.38,-2.752 5.322,-4.827 8.745,-6.167 3.358,-1.314 7.855,-2.677 13.371,-4.055 5.107,-1.224 9.186,-2.407 12.122,-3.516 2.871,-1.087 5.317,-2.717 7.272,-4.846 1.913,-2.086 2.883,-4.891 2.883,-8.338 0,-4.554 -1.826,-8.184 -5.581,-11.097 -3.752,-2.911 -9.43,-4.387 -16.874,-4.387 -5.051,0 -9.861,0.919 -14.301,2.731 -4.425,1.805 -7.919,4.148 -10.381,6.963 l -0.516,0.59 -2.738,-3.65 0.334,-0.387 c 2.739,-3.186 6.689,-5.81 11.739,-7.802 5.024,-1.98 10.397,-2.984 15.972,-2.984 5.94,0 11.01,0.897 15.067,2.667 4.092,1.786 7.173,4.248 9.156,7.317 1.983,3.07 2.988,6.484 2.988,10.148 C 3.585,-6.471 2.379,-2.758 0,0"
             style="fill:#5e8549;fill-opacity:1;fill-rule:nonzero;stroke:none"
             id="path42" /></g><g
           id="g44"
           transform="translate(424.8804,482.9775)"><path
             d="m 0,0 h 1.215 v -9.83 c -1.164,-1.114 -2.549,-1.962 -4.156,-2.543 -1.607,-0.582 -3.321,-0.874 -5.143,-0.874 -2.607,0 -4.96,0.583 -7.06,1.747 -2.1,1.163 -3.752,2.771 -4.953,4.82 -1.202,2.05 -1.803,4.339 -1.803,6.87 0,2.53 0.601,4.821 1.803,6.871 1.201,2.048 2.853,3.655 4.953,4.82 2.1,1.163 4.453,1.745 7.06,1.745 1.897,0 3.644,-0.291 5.238,-0.873 1.594,-0.582 2.96,-1.455 4.099,-2.619 L 0.494,9.262 c -2.202,2.125 -5.048,3.187 -8.54,3.187 -2.379,0 -4.523,-0.538 -6.433,-1.613 -1.912,-1.075 -3.411,-2.549 -4.499,-4.422 -1.088,-1.872 -1.631,-3.947 -1.631,-6.224 0,-2.278 0.543,-4.352 1.631,-6.224 1.088,-1.873 2.587,-3.348 4.499,-4.423 1.91,-1.075 4.054,-1.612 6.433,-1.612 3.315,0 5.997,0.923 8.046,2.77 z"
             style="fill:#5e8549;fill-opacity:1;fill-rule:nonzero;stroke:none"
             id="path46" /></g><g
           id="g48"
           transform="translate(416.7964,496.127)"><path
             d="m 0,0 c -2.512,0 -4.81,-0.567 -6.829,-1.687 -2.015,-1.116 -3.621,-2.679 -4.774,-4.644 -1.151,-1.966 -1.736,-4.195 -1.736,-6.628 0,-2.434 0.585,-4.663 1.737,-6.63 1.152,-1.966 2.759,-3.528 4.773,-4.643 2.019,-1.12 4.317,-1.687 6.829,-1.687 1.757,0 3.433,0.284 4.98,0.845 1.47,0.532 2.762,1.305 3.842,2.301 v 9.147 H 8.561 v -9.035 l -0.158,-0.142 c -2.129,-1.92 -4.944,-2.893 -8.365,-2.893 -2.452,0 -4.695,0.563 -6.667,1.675 -1.977,1.111 -3.551,2.659 -4.677,4.597 -1.125,1.938 -1.696,4.112 -1.696,6.465 0,2.351 0.57,4.526 1.696,6.464 1.126,1.937 2.7,3.484 4.677,4.598 1.974,1.11 4.217,1.674 6.667,1.674 3.413,0 6.27,-1.003 8.503,-2.981 l 0.141,0.163 C 7.662,-2.085 6.45,-1.347 5.075,-0.844 3.54,-0.284 1.833,0 0,0 m 0,-26.873 c -2.676,0 -5.129,0.608 -7.291,1.806 -2.166,1.2 -3.893,2.881 -5.134,4.997 -1.239,2.114 -1.868,4.507 -1.868,7.111 0,2.604 0.629,4.997 1.868,7.11 1.24,2.115 2.967,3.796 5.134,4.997 2.162,1.199 4.615,1.805 7.291,1.805 1.944,0 3.762,-0.304 5.401,-0.901 1.655,-0.605 3.094,-1.525 4.277,-2.734 L 9.985,-2.996 8.607,-4.579 8.247,-4.23 c -2.1,2.026 -4.861,3.053 -8.209,3.053 -2.284,0 -4.37,-0.521 -6.199,-1.552 -1.828,-1.028 -3.281,-2.457 -4.32,-4.246 -1.04,-1.79 -1.568,-3.803 -1.568,-5.984 0,-2.183 0.528,-4.195 1.568,-5.985 1.04,-1.79 2.493,-3.219 4.32,-4.247 1.827,-1.03 3.913,-1.551 6.199,-1.551 3.093,0 5.639,0.844 7.569,2.509 v 9.56 h 2.169 v -10.511 l -0.148,-0.14 C 8.422,-24.479 6.968,-25.369 5.305,-25.971 3.654,-26.569 1.868,-26.873 0,-26.873"
             style="fill:#5e8549;fill-opacity:1;fill-rule:nonzero;stroke:none"
             id="path50" /></g><g
           id="g52"
           transform="translate(439.9678,488.4619)"><path
             d="M 0,0 C 1.302,0.848 2.916,1.272 4.839,1.272 V 0.02 H 4.498 C 2.22,0.02 0.437,-0.702 -0.854,-2.144 -2.145,-3.587 -2.79,-5.573 -2.79,-8.104 V -18.579 H -4.042 V 1.12 h 1.214 V -3.624 C -2.246,-2.056 -1.304,-0.848 0,0"
             style="fill:#5e8549;fill-opacity:1;fill-rule:nonzero;stroke:none"
             id="path54" /></g><g
           id="g56"
           transform="translate(444.3301,489.248)"><path
             d="m 0,0 c -1.613,-0.065 -2.992,-0.463 -4.102,-1.186 -0.901,-0.585 -1.624,-1.368 -2.159,-2.334 0.207,0.323 0.437,0.625 0.69,0.908 1.352,1.512 3.226,2.293 5.571,2.321 z m -7.928,-18.889 h 0.299 v 9.999 c 0,0.958 0.091,1.847 0.273,2.663 l -0.311,-0.838 v 6.922 h -0.261 z m 1.253,-0.953 H -8.881 V 0.811 h 2.167 v -3.248 c 0.559,0.823 1.258,1.509 2.091,2.051 1.377,0.895 3.092,1.349 5.1,1.349 H 0.954 V -1.243 H 0.135 c -2.155,0 -3.789,-0.656 -4.996,-2.005 -1.204,-1.346 -1.814,-3.243 -1.814,-5.642 z"
             style="fill:#5e8549;fill-opacity:1;fill-rule:nonzero;stroke:none"
             id="path58" /></g><g
           id="g60"
           transform="translate(464.2778,475.5762)"><path
             d="m 0,0 v 4.1 h -7.173 c -2.05,0 -3.55,-0.386 -4.499,-1.159 -0.948,-0.771 -1.423,-1.815 -1.423,-3.13 0,-1.418 0.525,-2.532 1.575,-3.34 1.05,-0.811 2.487,-1.215 4.309,-1.215 3.542,0 5.945,1.581 7.211,4.744 M -0.626,12.336 C 0.626,11.121 1.252,9.362 1.252,7.06 V -5.693 H 0.038 v 3.947 c -0.633,-1.266 -1.576,-2.258 -2.828,-2.98 -1.252,-0.72 -2.752,-1.081 -4.498,-1.081 -2.201,0 -3.928,0.505 -5.181,1.518 -1.252,1.012 -1.878,2.353 -1.878,4.023 0,1.594 0.569,2.891 1.707,3.891 1.14,0.999 2.961,1.499 5.467,1.499 L 0,5.124 V 7.06 c 0,1.948 -0.513,3.428 -1.538,4.441 -1.024,1.012 -2.537,1.518 -4.535,1.518 -1.392,0 -2.695,-0.241 -3.909,-0.721 -1.215,-0.481 -2.253,-1.127 -3.113,-1.936 l -0.683,0.911 c 0.962,0.911 2.119,1.62 3.473,2.125 1.353,0.506 2.776,0.76 4.27,0.76 2.353,0 4.156,-0.608 5.409,-1.822"
             style="fill:#5e8549;fill-opacity:1;fill-rule:nonzero;stroke:none"
             id="path62" /></g><g
           id="g64"
           transform="translate(457.1045,479.1992)"><path
             d="m 0,0 c -1.928,0 -3.34,-0.354 -4.198,-1.051 -0.839,-0.683 -1.246,-1.587 -1.246,-2.762 0,-1.273 0.454,-2.242 1.389,-2.962 0.958,-0.741 2.31,-1.116 4.017,-1.116 3.326,0 5.53,1.427 6.735,4.361 V 0 Z m 0,1.024 c -2.374,0 -4.106,-0.463 -5.152,-1.38 -1.04,-0.914 -1.545,-2.069 -1.545,-3.533 0,-1.533 0.557,-2.727 1.701,-3.652 1.16,-0.938 2.802,-1.412 4.882,-1.412 1.654,0 3.087,0.343 4.26,1.018 0.284,0.164 0.551,0.342 0.802,0.537 -1.323,-0.961 -2.988,-1.446 -4.986,-1.446 -1.922,0 -3.47,0.443 -4.599,1.314 -1.169,0.9 -1.761,2.151 -1.761,3.717 0,1.46 0.538,2.637 1.599,3.501 1.032,0.84 2.647,1.265 4.799,1.265 h 7.65 v -4.377 l 0.038,0.076 V -8.84 H 7.949 V 3.437 C 7.949,5.596 7.365,7.255 6.215,8.371 5.06,9.49 3.352,10.059 1.138,10.059 -0.29,10.059 -1.671,9.813 -2.964,9.329 -4.107,8.901 -5.113,8.316 -5.962,7.588 l 0.111,-0.149 c 0.82,0.685 1.782,1.249 2.866,1.679 1.267,0.5 2.642,0.754 4.086,0.754 2.119,0 3.757,-0.557 4.87,-1.654 C 7.085,7.116 7.65,5.508 7.65,3.437 V 1.024 Z m -0.114,-10.93 c -2.304,0 -4.148,0.546 -5.481,1.624 -1.364,1.101 -2.055,2.58 -2.055,4.393 0,1.73 0.628,3.16 1.869,4.249 1.224,1.074 3.169,1.619 5.781,1.619 h 6.697 v 1.458 c 0,1.806 -0.47,3.187 -1.396,4.102 -0.928,0.916 -2.342,1.38 -4.2,1.38 -1.324,0 -2.58,-0.231 -3.735,-0.688 C -3.786,7.775 -4.783,7.156 -5.595,6.392 l -0.387,-0.366 -1.259,1.678 0.308,0.292 c 1.004,0.951 2.227,1.699 3.635,2.226 1.401,0.524 2.894,0.79 4.436,0.79 2.47,0 4.402,-0.658 5.741,-1.957 C 8.221,7.753 8.902,5.863 8.902,3.437 V -9.793 H 6.734 v 2.811 C 6.157,-7.688 5.451,-8.284 4.622,-8.762 3.302,-9.521 1.709,-9.906 -0.114,-9.906"
             style="fill:#5e8549;fill-opacity:1;fill-rule:nonzero;stroke:none"
             id="path66" /></g><g
           id="g68"
           transform="translate(489.2339,472.0273)"><path
             d="m 0,0 c 1.277,0.746 2.283,1.784 3.018,3.112 0.732,1.328 1.1,2.853 1.1,4.575 0,1.719 -0.368,3.251 -1.1,4.591 C 2.283,13.619 1.277,14.664 0,15.41 c -1.278,0.746 -2.714,1.119 -4.309,1.119 -1.593,0 -3.03,-0.373 -4.307,-1.119 -1.278,-0.746 -2.284,-1.791 -3.017,-3.132 -0.735,-1.34 -1.101,-2.872 -1.101,-4.591 0,-1.722 0.366,-3.247 1.101,-4.575 C -10.9,1.784 -9.894,0.746 -8.616,0 c 1.277,-0.746 2.714,-1.119 4.307,-1.119 1.595,0 3.031,0.373 4.309,1.119 M 0.626,16.435 C 2.093,15.587 3.251,14.398 4.099,12.867 4.946,11.336 5.371,9.608 5.371,7.687 5.371,5.763 4.946,4.049 4.099,2.543 3.251,1.037 2.093,-0.14 0.626,-0.986 c -1.468,-0.849 -3.1,-1.272 -4.897,-1.272 -1.897,0 -3.6,0.48 -5.104,1.443 -1.506,0.961 -2.626,2.277 -3.359,3.947 v -12.64 h -1.253 v 27.063 h 1.215 v -5.39 c 0.733,1.721 1.853,3.074 3.359,4.062 1.505,0.986 3.219,1.48 5.142,1.48 1.797,0 3.429,-0.425 4.897,-1.272"
             style="fill:#5e8549;fill-opacity:1;fill-rule:nonzero;stroke:none"
             id="path70" /></g><g
           id="g72"
           transform="translate(484.9253,488.0801)"><path
             d="m 0,0 c -1.501,0 -2.869,-0.354 -4.067,-1.055 -1.196,-0.698 -2.152,-1.69 -2.84,-2.948 -0.691,-1.264 -1.042,-2.73 -1.042,-4.363 0,-1.632 0.35,-3.094 1.041,-4.343 0.688,-1.248 1.644,-2.233 2.841,-2.932 1.197,-0.7 2.566,-1.054 4.067,-1.054 1.501,0 2.87,0.354 4.068,1.054 1.196,0.698 2.151,1.684 2.841,2.932 0.691,1.251 1.041,2.712 1.041,4.343 0,1.63 -0.351,3.097 -1.042,4.363 -0.69,1.258 -1.645,2.25 -2.84,2.948 C 2.869,-0.354 1.5,0 0,0 m 0,-17.649 c -1.673,0 -3.204,0.399 -4.548,1.185 -1.348,0.786 -2.422,1.894 -3.194,3.293 -0.77,1.393 -1.16,3.009 -1.16,4.805 0,1.794 0.389,3.416 1.159,4.821 0.772,1.411 1.847,2.526 3.196,3.314 1.345,0.787 2.875,1.185 4.547,1.185 1.671,0 3.202,-0.398 4.549,-1.185 1.347,-0.787 2.422,-1.902 3.195,-3.314 0.77,-1.408 1.159,-3.03 1.159,-4.821 0,-1.794 -0.39,-3.409 -1.16,-4.805 C 6.97,-14.57 5.895,-15.679 4.549,-16.464 3.204,-17.25 1.672,-17.649 0,-17.649 m -9.202,-7.435 h 0.3 v 14.435 l 0.913,-2.08 c 0.691,-1.575 1.761,-2.833 3.179,-3.738 1.419,-0.907 3.05,-1.367 4.848,-1.367 1.704,0 3.271,0.406 4.658,1.207 1.386,0.801 2.494,1.928 3.296,3.352 0.803,1.426 1.211,3.078 1.211,4.909 0,1.83 -0.408,3.496 -1.213,4.95 -0.801,1.445 -1.909,2.584 -3.294,3.385 -1.388,0.802 -2.956,1.209 -4.658,1.209 -1.82,0 -3.462,-0.473 -4.881,-1.403 -1.419,-0.93 -2.49,-2.225 -3.183,-3.849 l -0.915,-2.147 v 7.246 h -0.261 z m 1.253,-0.953 h -2.206 V 1.979 h 2.168 v -3.99 c 0.695,1.032 1.573,1.896 2.621,2.583 1.577,1.034 3.395,1.559 5.404,1.559 1.872,0 3.599,-0.449 5.135,-1.336 1.537,-0.889 2.765,-2.149 3.652,-3.75 0.883,-1.597 1.331,-3.418 1.331,-5.411 0,-1.997 -0.449,-3.806 -1.333,-5.377 -0.886,-1.574 -2.114,-2.822 -3.65,-3.709 -1.534,-0.886 -3.261,-1.335 -5.135,-1.335 -1.983,0 -3.788,0.51 -5.362,1.516 -1.05,0.671 -1.928,1.515 -2.625,2.519 z"
             style="fill:#5e8549;fill-opacity:1;fill-rule:nonzero;stroke:none"
             id="path74" /></g><g
           id="g76"
           transform="translate(517.4155,487.5889)"><path
             d="M 0,0 C 1.417,-1.429 2.125,-3.473 2.125,-6.13 V -17.706 H 0.873 v 11.501 c 0,2.327 -0.589,4.104 -1.765,5.333 -1.177,1.226 -2.853,1.84 -5.029,1.84 -2.455,0 -4.391,-0.728 -5.808,-2.183 -1.417,-1.455 -2.125,-3.409 -2.125,-5.863 v -10.628 h -1.252 v 28.163 h 1.252 V -2.714 c 0.658,1.519 1.683,2.708 3.074,3.568 1.391,0.861 3.05,1.292 4.973,1.292 C -3.354,2.146 -1.418,1.43 0,0"
             style="fill:#5e8549;fill-opacity:1;fill-rule:nonzero;stroke:none"
             id="path78" /></g><g
           id="g80"
           transform="translate(502.7856,470.3594)"><path
             d="m 0,0 h 0.299 v 10.151 c 0,1.095 0.138,2.1 0.412,3.014 L 0.299,12.215 V 27.21 H 0 Z m 15.979,0 h 0.3 v 11.1 c 0,2.514 -0.669,4.463 -1.988,5.795 -1.319,1.329 -3.159,2.003 -5.468,2.003 -1.824,0 -3.413,-0.411 -4.722,-1.219 -0.931,-0.575 -1.692,-1.317 -2.276,-2.211 0.221,0.31 0.467,0.604 0.735,0.88 1.503,1.544 3.571,2.327 6.148,2.327 2.301,0 4.108,-0.669 5.374,-1.988 1.259,-1.314 1.897,-3.219 1.897,-5.663 z m 1.253,-0.953 h -2.206 v 11.977 c 0,2.19 -0.549,3.872 -1.633,5.003 -1.078,1.124 -2.654,1.694 -4.685,1.694 -2.309,0 -4.147,-0.686 -5.465,-2.038 -1.32,-1.356 -1.99,-3.217 -1.99,-5.532 V -0.953 H -0.954 V 28.164 H 1.253 V 16.319 c 0.625,0.866 1.41,1.592 2.346,2.17 1.463,0.905 3.22,1.363 5.224,1.363 2.573,0 4.64,-0.77 6.145,-2.287 h 10e-4 c 1.502,-1.515 2.263,-3.691 2.263,-6.465 z"
             style="fill:#5e8549;fill-opacity:1;fill-rule:nonzero;stroke:none"
             id="path82" /></g><g
           id="g84"
           transform="translate(530.1304,476.9434)"><path
             d="m 0,0 c 1.087,-1.873 2.574,-3.348 4.459,-4.423 1.885,-1.075 3.992,-1.612 6.321,-1.612 2.327,0 4.44,0.537 6.338,1.612 1.898,1.075 3.39,2.55 4.479,4.423 1.087,1.872 1.632,3.946 1.632,6.225 0,2.276 -0.545,4.351 -1.632,6.223 -1.089,1.873 -2.581,3.347 -4.479,4.422 -1.898,1.075 -4.011,1.613 -6.338,1.613 -2.329,0 -4.436,-0.538 -6.321,-1.613 C 2.574,15.795 1.087,14.321 0,12.448 -1.088,10.576 -1.632,8.501 -1.632,6.225 -1.632,3.946 -1.088,1.872 0,0 m 25.658,-8.996 c -0.784,-0.961 -1.696,-1.689 -2.733,-2.183 -1.038,-0.493 -2.176,-0.74 -3.416,-0.74 -1.366,0 -2.72,0.374 -4.061,1.12 -1.342,0.746 -2.809,1.943 -4.403,3.586 H 10.78 c -2.582,0 -4.916,0.583 -7.003,1.747 -2.088,1.163 -3.727,2.771 -4.916,4.82 -1.19,2.05 -1.784,4.339 -1.784,6.871 0,2.529 0.594,4.82 1.784,6.87 1.189,2.049 2.828,3.655 4.916,4.82 2.087,1.163 4.421,1.745 7.003,1.745 2.58,0 4.92,-0.582 7.021,-1.745 2.1,-1.165 3.744,-2.771 4.935,-4.82 1.188,-2.05 1.783,-4.341 1.783,-6.87 0,-2.329 -0.506,-4.448 -1.518,-6.358 -1.012,-1.912 -2.41,-3.48 -4.194,-4.707 -1.784,-1.227 -3.803,-1.98 -6.054,-2.259 2.328,-2.478 4.593,-3.719 6.794,-3.719 2.075,0 3.871,0.886 5.39,2.657 z"
             style="fill:#5e8549;fill-opacity:1;fill-rule:nonzero;stroke:none"
             id="path86" /></g><g
           id="g88"
           transform="translate(540.9102,494.9502)"><path
             d="m 0,0 c -2.233,0 -4.28,-0.521 -6.084,-1.551 -1.803,-1.028 -3.244,-2.457 -4.284,-4.247 -1.04,-1.79 -1.567,-3.804 -1.567,-5.984 0,-2.183 0.527,-4.196 1.567,-5.986 1.04,-1.791 2.481,-3.219 4.284,-4.248 1.802,-1.028 3.849,-1.549 6.084,-1.549 2.234,0 4.288,0.521 6.103,1.55 1.814,1.028 3.261,2.456 4.302,4.247 1.039,1.79 1.567,3.804 1.567,5.986 0,2.179 -0.528,4.193 -1.567,5.984 -1.041,1.79 -2.488,3.219 -4.302,4.247 C 4.286,-0.521 2.233,0 0,0 m 0,-24.52 c -2.403,0 -4.609,0.565 -6.557,1.676 -1.95,1.113 -3.51,2.659 -4.635,4.597 -1.125,1.937 -1.697,4.112 -1.697,6.465 0,2.35 0.572,4.526 1.697,6.464 1.125,1.936 2.685,3.483 4.635,4.595 1.95,1.113 4.156,1.677 6.557,1.677 2.399,0 4.611,-0.564 6.573,-1.676 1.963,-1.112 3.53,-2.659 4.656,-4.596 1.126,-1.939 1.696,-4.114 1.696,-6.464 0,-2.352 -0.57,-4.527 -1.696,-6.465 -1.127,-1.939 -2.693,-3.485 -4.656,-4.597 C 4.613,-23.955 2.401,-24.52 0,-24.52 M 0,1.177 c -2.486,0 -4.764,-0.568 -6.771,-1.686 -2.002,-1.117 -3.596,-2.679 -4.735,-4.642 -1.141,-1.966 -1.72,-4.198 -1.72,-6.631 0,-2.435 0.579,-4.666 1.72,-6.631 1.139,-1.966 2.733,-3.528 4.735,-4.644 2.006,-1.118 4.285,-1.685 6.771,-1.685 h 0.467 l 0.14,-0.145 c 1.556,-1.604 3,-2.783 4.293,-3.503 2.414,-1.342 5.009,-1.331 7.04,-0.365 0.858,0.407 1.633,0.995 2.31,1.75 l -0.101,0.117 c -1.531,-1.601 -3.338,-2.414 -5.381,-2.414 -2.329,0 -4.731,1.303 -7.143,3.87 l -0.642,0.685 0.932,0.115 c 2.166,0.268 4.131,1 5.841,2.178 1.712,1.178 3.073,2.704 4.044,4.537 0.971,1.833 1.463,3.897 1.463,6.135 0,2.432 -0.579,4.663 -1.72,6.631 -1.14,1.963 -2.739,3.525 -4.752,4.641 C 4.771,0.609 2.485,1.177 0,1.177 m 8.729,-31.579 c -1.441,0 -2.885,0.396 -4.292,1.179 -1.336,0.744 -2.806,1.929 -4.373,3.527 H 0 c -2.651,0 -5.085,0.608 -7.235,1.806 -2.155,1.201 -3.869,2.882 -5.096,4.998 -1.226,2.113 -1.848,4.504 -1.848,7.11 0,2.604 0.622,4.996 1.848,7.109 1.227,2.113 2.941,3.795 5.096,4.997 2.15,1.198 4.585,1.806 7.235,1.806 2.649,0 5.089,-0.607 7.252,-1.805 2.167,-1.201 3.888,-2.883 5.116,-4.998 1.227,-2.114 1.848,-4.507 1.848,-7.109 0,-2.395 -0.529,-4.61 -1.573,-6.581 -1.044,-1.971 -2.506,-3.612 -4.346,-4.876 -1.588,-1.094 -3.378,-1.83 -5.332,-2.195 1.998,-1.934 3.947,-2.914 5.803,-2.914 1.946,0 3.59,0.815 5.027,2.491 l 0.361,0.42 1.345,-1.557 -0.253,-0.311 c -0.826,-1.011 -1.801,-1.789 -2.898,-2.311 -1.098,-0.522 -2.315,-0.786 -3.621,-0.786"
             style="fill:#5e8549;fill-opacity:1;fill-rule:nonzero;stroke:none"
             id="path90" /></g><g
           id="g92"
           transform="translate(563.189,496.4521)"><path
             d="m 0,0 h 1.291 v -25.393 h 15.562 v -1.176 H 0 Z"
             style="fill:#5e8549;fill-opacity:1;fill-rule:nonzero;stroke:none"
             id="path94" /></g><g
           id="g96"
           transform="translate(563.6655,470.3594)"><path
             d="M 0,0 H 15.899 V 0.224 H 0.337 V 25.616 H 0 Z M 16.853,-0.953 H -0.954 V 26.569 H 1.291 V 1.177 h 15.562 z"
             style="fill:#5e8549;fill-opacity:1;fill-rule:nonzero;stroke:none"
             id="path98" /></g><path
           d="m 595.239,481.638 h 284.139 v 2.019 H 595.239 Z"
           style="fill:#5e8549;fill-opacity:1;fill-rule:nonzero;stroke:none"
           id="path100" /><g
           id="g102"
           transform="translate(363.4536,535.8906)"><path
             d="m 0,0 c -0.305,-0.927 -0.706,-1.888 -1.226,-2.938 -1.032,-2.084 -2.341,-4.069 -3.542,-5.856 -0.041,-0.049 -0.069,-0.102 -0.104,-0.155 -0.067,-0.1 -0.137,-0.206 -0.203,-0.305 l -0.213,-0.317 c -0.41,-0.607 -0.817,-1.227 -1.214,-1.854 -0.569,-0.896 -1.26,-2.048 -1.795,-3.321 -1.035,2.482 -1.68,5.139 -2.305,7.72 -0.261,1.078 -0.523,2.156 -0.812,3.225 -0.14,0.518 -0.323,1.093 -0.558,1.75 l -0.039,0.107 c -0.199,0.557 -0.413,1.115 -0.625,1.667 -1.393,3.606 -2.708,7.011 -0.187,10.177 0.135,0.173 0.268,0.318 0.402,0.441 0.174,0.159 0.367,0.278 0.605,0.371 0.25,0.097 0.491,0.144 0.802,0.154 l 0.369,-0.018 c 0.042,0 0.086,-0.003 0.13,-0.005 1.729,-3.884 1.409,-8.394 0.951,-12.365 -0.063,-0.509 0.254,-0.904 0.75,-0.955 0.051,-0.012 0.089,-0.012 0.127,-0.012 0.471,0 0.954,0.318 1.03,0.89 0.52,4.454 0.71,9.085 -1.084,13.186 0.177,0.234 0.3,0.479 0.391,0.698 0.051,0.123 0.104,0.251 0.173,0.379 0.052,0.099 0.112,0.183 0.212,0.326 0.358,0.51 0.767,0.796 1.257,0.875 0.085,0.013 0.172,0.009 0.327,0.005 0.161,-0.006 0.298,-0.029 0.434,-0.056 0.127,-0.049 0.254,-0.093 0.377,-0.103 0.167,-0.056 0.335,-0.109 0.499,-0.189 1.088,-0.509 1.951,-1.355 2.051,-1.455 0.961,-0.919 1.76,-1.979 2.374,-3.152 C 0.169,7.352 0.58,5.647 0.574,3.848 0.568,2.563 0.374,1.264 0,0 m -6.987,-18.266 0.068,0.005 0.012,-0.023 z M -22.56,-44.403 c -2.227,-1.392 -4.461,-2.933 -6.436,-4.294 l -1.491,-1.05 -2.666,-1.764 c -0.28,-0.177 -0.596,-0.383 -0.917,-0.594 0.057,0.107 0.113,0.222 0.173,0.326 2.364,4.144 5.848,6.509 9.573,6.509 h 0.152 c 0.445,0 0.827,0.318 0.928,0.776 0.013,0.076 0.026,0.152 0.026,0.228 0,0.357 -0.178,0.649 -0.496,0.802 -9.001,4.284 -19.91,3.585 -28.453,-1.856 -4.145,-2.645 -8.988,-6.802 -8.505,-11.608 0.279,-2.937 2.187,-5.047 5.683,-6.255 -5.505,-2.021 -11.048,-4.043 -16.553,-6.077 l -0.12,-0.044 c -0.925,1.323 -2.45,2.197 -4.187,2.203 -2.105,0.009 -3.914,-1.251 -4.717,-3.057 -3.706,0.552 -7.306,1.563 -10.764,3.017 0.091,0.022 0.184,0.037 0.274,0.059 0.082,0.019 0.14,0.058 0.163,0.075 0.114,0.045 0.244,0.1 0.356,0.195 0.049,0.042 0.081,0.085 0.116,0.13 0.099,0.115 0.171,0.232 0.183,0.295 l 0.073,0.135 c 0.012,0.041 0.018,0.081 0.026,0.155 0.008,0.045 0.015,0.087 0.018,0.132 v 0.004 c 0.006,0.104 -0.002,0.211 -0.019,0.288 l -0.015,0.111 c -0.03,0.117 -0.075,0.229 -0.146,0.351 -0.059,0.1 -0.119,0.184 -0.224,0.284 -0.027,0.025 -0.057,0.047 -0.099,0.075 -0.203,0.161 -0.419,0.251 -0.579,0.257 -0.114,0.035 -0.236,0.054 -0.363,0.055 -1.894,0.023 -3.648,0.602 -5.362,1.767 -2.42,1.648 -4.398,4.229 -6.312,6.725 l -0.993,1.281 c -0.485,0.621 -1.058,1.346 -1.641,2.009 -0.371,0.423 -0.791,0.878 -1.24,1.339 -0.675,0.691 -1.3,1.262 -1.908,1.743 -1.423,1.128 -2.809,1.823 -4.118,2.068 -0.259,0.047 -0.52,0.059 -0.818,0.042 -0.056,-0.004 -0.111,-0.009 -0.172,-0.015 -0.262,-0.03 -0.486,-0.082 -0.689,-0.158 l -0.116,-0.051 c -0.177,-0.074 -0.346,-0.166 -0.509,-0.274 -0.073,-0.049 -0.145,-0.1 -0.215,-0.155 -0.133,-0.102 -0.26,-0.215 -0.379,-0.336 -0.087,-0.087 -0.17,-0.178 -0.252,-0.275 -0.093,-0.111 -0.185,-0.227 -0.27,-0.347 -0.062,-0.087 -0.123,-0.175 -0.182,-0.268 -0.092,-0.145 -0.18,-0.295 -0.264,-0.451 -0.052,-0.096 -0.102,-0.195 -0.151,-0.294 -0.083,-0.167 -0.16,-0.339 -0.234,-0.513 l -0.075,-0.181 c -0.033,-0.08 -0.059,-0.177 -0.091,-0.26 -1.048,0.959 -2.192,1.708 -3.217,2.366 -1.473,0.946 -2.955,1.859 -4.448,2.781 l -2.206,1.367 c -4.207,2.604 -7.757,4.96 -10.986,7.651 0.657,0.793 1.07,1.796 1.075,2.907 0.01,2.273 -1.632,4.158 -3.795,4.545 -0.001,0.002 0,0.005 -0.001,0.006 l -0.002,0.004 c -2.611,5.913 -2.21,12.534 -1.628,18.275 0.742,7.329 1.05,13.353 0.968,19.005 0.477,0.556 0.93,1.202 1.345,1.936 2.115,3.739 2.497,8.572 0.972,12.315 -0.459,1.142 -1.11,2.222 -1.893,3.151 -0.016,0.033 -0.047,0.067 -0.07,0.099 0.006,0.052 0.015,0.105 0.015,0.153 0,0.127 -0.016,0.263 -0.048,0.411 -1.263,4.787 -1.332,9.843 -1.246,14.497 0.198,-0.033 0.396,-0.063 0.603,-0.064 2.093,-0.009 3.796,1.68 3.805,3.773 0.001,0.227 -0.027,0.446 -0.064,0.663 6.848,1.465 13.751,1.47 19.906,-0.075 2.72,-0.683 5.511,-1.948 8.709,-3.937 -0.703,-0.113 -1.414,-0.31 -2.118,-0.612 -2.563,-1.095 -4.504,-3.247 -6.216,-5.145 -0.201,-0.223 -0.268,-0.585 -0.163,-0.88 0.089,-0.247 0.284,-0.412 0.538,-0.45 1.079,-0.165 2.162,-0.247 3.241,-0.247 3.868,0 7.675,1.047 10.977,3.054 0.142,0.087 0.247,0.216 0.313,0.362 1.178,-0.532 2.416,-0.947 3.778,-1.156 0.702,-0.108 1.418,-0.176 2.109,-0.243 1.281,-0.122 2.606,-0.249 3.848,-0.631 1.808,-0.556 3.603,-1.633 5.335,-3.2 2.455,-2.222 4.628,-5.132 6.644,-8.896 0.128,-0.24 0.245,-0.484 0.368,-0.725 -0.093,0.065 -0.176,0.132 -0.271,0.197 -1.703,1.152 -3.538,1.743 -5.607,1.808 -0.125,0.004 -0.254,0.009 -0.384,0.016 -0.269,0.012 -0.538,0.018 -0.81,0.021 l 0.017,0.156 -0.065,-0.156 c -0.313,-0.006 -0.622,-0.034 -0.917,-0.108 -0.291,-0.074 -0.498,-0.226 -0.613,-0.453 -0.275,-0.543 0.063,-1.376 0.287,-1.927 l 0.073,-0.183 c 0.78,-1.99 2.152,-3.896 4.318,-5.999 0.966,-0.938 2.084,-1.861 3.718,-2.262 0.413,-0.101 0.84,-0.177 1.252,-0.251 0.782,-0.14 1.582,-0.294 2.314,-0.615 0.113,-0.624 0.214,-1.249 0.293,-1.877 0.269,-2.16 0.403,-4.374 0.532,-6.515 0.097,-1.628 0.206,-3.304 0.367,-4.961 -0.746,-10e-4 -1.485,0 -2.222,-0.012 -2.593,-0.013 -5.174,-0.051 -7.768,-0.127 -1.297,-0.038 -2.581,-0.089 -3.877,-0.152 -0.166,0 -0.382,0 -0.611,0.012 -1.08,0.026 -2.428,0.076 -3.127,-0.724 -0.954,-1.094 -0.331,-3.433 0.534,-6.166 0.139,-0.471 0.267,-0.865 0.33,-1.132 0.573,-2.415 1.183,-4.844 1.831,-7.246 0.598,-2.213 1.297,-4.425 1.971,-6.548 0.902,-2.873 1.843,-5.836 2.53,-8.811 0.051,-0.228 0.089,-0.508 0.127,-0.8 0.152,-0.993 0.318,-2.238 1.131,-2.924 h 0.013 c 0.089,-0.076 0.178,-0.154 0.28,-0.204 0.966,-0.559 2.441,-0.623 3.75,-0.687 0.394,-0.025 0.75,-0.038 1.055,-0.063 1.996,-0.216 3.967,-0.318 5.899,-0.318 1.488,0 2.95,0.064 4.386,0.191 1.335,0.114 2.645,0.038 4.043,-0.026 1.767,-0.101 3.598,-0.203 5.493,0.115 l 0.712,0.114 v 0.724 c -0.013,2.175 0.534,4.362 1.08,6.472 l 5.772,22.681 c 0.051,0.203 0.166,0.509 0.293,0.864 0.534,1.475 0.89,2.568 0.635,3.306 -0.394,1.144 -1.564,1.144 -2.187,1.144 h -0.292 c -1.614,0.051 -3.229,0.102 -4.844,0.14 -4.321,0.099 -8.691,0.16 -13.038,0.163 2.29,1.322 4.737,2.856 6.485,5.091 0.939,1.2 1.584,2.455 1.919,3.731 0.263,0.998 0.333,2.032 0.402,3.032 0.043,0.633 0.087,1.288 0.18,1.922 0.047,0.318 -0.089,0.673 -0.33,0.864 -0.194,0.154 -0.432,0.186 -0.671,0.092 -2.171,-0.855 -4.014,-1.777 -5.635,-2.819 -0.147,-0.095 -0.302,-0.197 -0.459,-0.306 0.663,2.239 1.493,4.441 2.5,6.593 1.985,4.246 5.376,10.123 10.255,14.014 1.1,0.876 2.391,1.388 3.757,1.929 1.302,0.516 2.648,1.049 3.814,1.927 1.343,1.011 2.51,2.23 3.639,3.409 0.612,0.639 1.245,1.299 1.895,1.915 4.269,4.046 10.95,4.439 16.282,4.328 6.803,-0.14 13.361,-2.163 19.072,-5.825 0.419,-1.397 1.624,-2.44 3.112,-2.619 0.278,-3.705 0.012,-7.447 -0.249,-11.083 l -0.016,-0.201 c -0.002,-0.039 -0.005,-0.079 -0.008,-0.118 -1.44,-1.378 -2.405,-3.104 -3.227,-4.797 l -0.184,-0.376 c -0.473,-0.965 -0.963,-1.963 -1.146,-3.036 -0.106,-0.618 -0.093,-1.233 0.042,-1.934 0.034,-0.18 0.078,-0.361 0.121,-0.543 0.039,-0.162 0.071,-0.327 0.103,-0.492 -0.123,0.003 -0.244,0.004 -0.373,-0.015 -0.824,-0.115 -1.582,-0.419 -2.269,-0.914 l -0.072,-0.048 c -0.056,-0.042 -0.108,-0.088 -0.159,-0.136 l -0.075,-0.067 c -0.713,-0.61 -1.317,-1.436 -1.838,-2.51 L -15.882,9.725 V 9.707 c -0.012,-0.028 -0.022,-0.056 -0.033,-0.085 l -0.034,-0.086 c -0.823,-1.786 -1.095,-3.488 -0.832,-5.201 0.011,-0.074 0.02,-0.149 0.028,-0.223 0.016,-0.143 0.032,-0.285 0.065,-0.431 0.234,-1.002 0.583,-1.956 0.859,-2.674 0.173,-0.448 0.35,-0.893 0.531,-1.341 0.407,-1.003 0.828,-2.04 1.13,-3.074 l 0.065,-0.243 c 0.335,-1.187 0.671,-2.48 1.026,-3.952 l 0.024,-0.094 c 0.761,-3.116 1.549,-6.339 3.016,-9.371 0.276,-0.575 0.526,-1.053 0.78,-1.494 l -0.022,-0.501 0.318,0.044 c 0.245,-0.331 0.599,-0.52 0.98,-0.52 0.088,0 0.18,0.01 0.273,0.03 0.154,0.035 0.304,0.104 0.456,0.208 0.227,0.155 0.397,0.372 0.488,0.624 0.031,0.081 0.068,0.188 0.085,0.311 l 0.199,0.117 -0.147,0.261 c 0.11,0.73 0.322,1.436 0.595,2.127 -0.106,-1.578 -0.141,-3.079 -0.149,-4.401 -0.004,-0.613 -0.002,-1.228 0.001,-1.855 0.009,-2.869 0.01,-5.828 -0.594,-8.638 -1.592,-0.715 -2.708,-2.302 -2.716,-4.16 -0.004,-0.788 0.21,-1.519 0.556,-2.168 -4.6,-2.1 -9.172,-4.541 -13.626,-7.32 m -14.727,-9.927 -0.338,-0.242 -0.036,-0.082 c -0.023,-0.053 -0.042,-0.11 -0.06,-0.167 -0.013,-0.038 -0.027,-0.078 -0.048,-0.129 -0.153,-0.423 -0.307,-0.846 -0.437,-1.241 -0.023,-0.054 -0.044,-0.113 -0.063,-0.17 -0.013,-0.037 -0.025,-0.077 -0.04,-0.113 l -0.05,-0.116 0.044,-0.118 c 0.044,-0.117 0.104,-0.221 0.162,-0.298 -0.646,-1.949 -1.318,-3.947 -2.445,-5.63 -1.042,-1.577 -2.326,-2.467 -3.788,-2.619 -1.259,-0.127 -2.925,0.254 -3.484,1.729 -0.025,0.076 -0.063,0.139 -0.076,0.139 -0.037,0.074 -0.087,0.147 -0.147,0.209 0.004,0.058 0.008,0.115 0.006,0.147 0.171,2.101 0.428,4.507 1.333,6.466 0.856,1.872 2.359,3.375 3.812,4.828 l 0.05,0.049 c 0.2,0.197 0.3,0.447 0.282,0.708 -0.015,0.224 -0.116,0.444 -0.286,0.617 -0.326,0.334 -0.908,0.46 -1.347,0.029 -1.552,-1.552 -3.311,-3.312 -4.274,-5.514 -0.901,-2.068 -1.225,-4.395 -1.417,-6.506 -0.084,0.007 -0.17,0.011 -0.25,0.023 -0.063,0 -0.114,0.013 -0.177,0.013 l -0.054,0.007 c -0.019,0.02 -0.034,0.045 -0.054,0.063 l -0.128,0.127 -0.718,0.089 -0.302,-0.107 c -0.106,0.017 -0.21,0.031 -0.321,0.049 -1.411,0.23 -3.077,0.649 -4.45,1.641 -2.276,1.639 -2.949,4.144 -1.792,6.534 2.059,4.208 6.916,7.095 9.624,8.442 6.535,3.203 14.061,3.763 20.786,1.577 -5.072,-1.692 -7.92,-6.815 -9.191,-9.84 -0.067,-0.165 -0.13,-0.334 -0.195,-0.499 -0.042,-0.032 -0.085,-0.057 -0.131,-0.095 m -108.52,60.328 c 0.245,-0.042 0.502,-0.067 0.801,-0.057 l 0.043,0.005 c -0.002,-0.701 -0.01,-1.34 -0.024,-1.941 -0.218,0.666 -0.492,1.331 -0.82,1.993 m 31.726,57.826 c 0.394,0.274 0.797,0.515 1.212,0.733 l -0.013,-0.023 c -0.058,-0.082 -0.111,-0.163 -0.145,-0.233 -0.051,-0.079 -0.091,-0.166 -0.14,-0.252 l -0.172,-0.125 c -1.037,-0.808 -1.916,-1.449 -2.743,-2.007 0.556,0.732 1.232,1.373 2.001,1.907 m 76.177,11.224 c 0.129,0.231 0.34,0.386 0.549,0.448 1.442,0 3.238,-1.271 5.336,-3.776 1.232,-1.486 2.363,-3.27 3.56,-5.613 0.263,-0.51 0.521,-1.019 0.781,-1.533 l 0.386,-0.764 c 1.006,-2.025 1.937,-3.856 3.021,-5.565 -0.138,0.05 -0.28,0.099 -0.423,0.147 l -0.047,0.012 c -1.268,0.459 -2.44,0.789 -3.634,1.016 -1.506,0.271 -3.04,0.297 -4.544,0.324 -1.633,0.037 -3.32,0.076 -4.922,0.436 -1.725,0.412 -3.124,0.937 -4.273,1.605 -1.089,0.641 -1.621,1.675 -1.62,3.154 0,0.109 0.003,0.22 0.008,0.333 0.061,1.341 0.485,2.597 1.238,3.592 0.054,0.076 0.108,0.14 0.201,0.236 0.087,0.104 0.18,0.199 0.28,0.288 l 0.271,0.212 c 0.096,0.076 0.194,0.129 0.314,0.19 0.38,0.212 0.817,0.315 1.333,0.315 0.124,0 0.238,-0.011 0.384,-0.025 l 0.287,-0.034 c 0.176,-0.03 0.358,-0.073 0.537,-0.095 1.018,-1.506 2.23,-2.854 3.623,-3.978 0.203,-0.165 0.445,-0.254 0.674,-0.254 0.229,0 0.47,0.089 0.648,0.267 h 0.013 c 0.191,0.19 0.292,0.47 0.279,0.763 -0.025,0.241 -0.127,0.47 -0.305,0.61 -1.363,1.11 -2.536,2.42 -3.511,3.887 -0.02,0.077 -0.045,0.152 -0.07,0.228 -0.283,0.845 -0.581,1.734 -0.582,2.638 0,0.385 0.069,0.703 0.208,0.936 M -90.438,-65.945 Z m -17.003,131.762 0.674,0.343 0.027,0.015 c 0.131,0.083 0.262,0.156 0.416,0.238 l 0.067,-0.058 0.187,0.188 0.833,0.425 c 1.575,0.289 3.078,0.807 4.569,1.51 1.767,0.838 3.521,1.919 5.352,3.089 0.305,0.19 0.458,0.483 0.445,0.826 -0.013,0.356 -0.229,0.699 -0.534,0.852 -0.28,0.152 -0.611,0.127 -0.89,-0.051 -3.058,-1.946 -6.49,-4.113 -10.287,-4.487 -0.104,0.044 -0.217,0.077 -0.371,0.092 -0.267,0.023 -0.569,0.049 -0.849,0.107 l -0.471,0.119 c -1.018,0.289 -1.746,0.802 -2.048,1.441 -0.1,0.217 -0.15,0.455 -0.15,0.711 0,0.356 0.097,0.748 0.289,1.174 1.137,2.499 4.564,2.836 7.066,3.083 0.885,0.088 1.783,0.151 2.754,0.219 3.194,0.24 6.491,0.487 9.501,1.694 -0.136,-0.723 -0.266,-1.449 -0.398,-2.201 -0.012,-0.116 -0.035,-0.231 -0.056,-0.338 -0.009,-0.037 -0.015,-0.074 -0.028,-0.162 l -0.358,-1.943 c -0.25,-1.401 -0.487,-2.725 -1.103,-3.983 -0.73,-1.473 -1.743,-2.961 -3.097,-4.551 -1.831,-2.154 -4.703,-5.156 -8.497,-6.335 -1.327,-0.409 -3.271,-0.786 -5.001,-0.253 -1.426,0.437 -2.144,1.388 -2.143,2.848 0,0.299 0.03,0.619 0.09,0.96 0,10e-4 0.001,0.002 0.001,0.003 0.007,0.064 0.016,0.125 0.029,0.186 0.009,0.044 0.019,0.087 0.028,0.131 l 0.028,0.124 c 0.021,0.08 0.049,0.161 0.088,0.275 0.009,0.037 0.016,0.061 0.076,0.171 0.046,0.127 0.092,0.243 0.138,0.335 l 0.093,0.186 c 0.083,0.143 0.166,0.286 0.27,0.429 l 0.07,0.119 c 0.804,1.131 2.071,1.869 3.19,2.469 m -52.058,-35.241 c 0.185,1.067 0.368,2.161 0.542,3.253 0.613,-0.548 1.27,-1.047 1.781,-1.435 0.197,-0.144 0.382,-0.287 0.549,-0.416 l 0.187,-0.146 c 1.397,-1.133 2.869,-1.799 4.254,-2.35 2.126,-0.845 4.054,-1.872 5.731,-3.054 0.635,-0.446 1.242,-0.944 1.804,-1.48 l 0.227,-0.226 c 0.212,-0.212 0.423,-0.436 0.616,-0.652 l 0.058,-0.067 c 0.036,-0.041 0.074,-0.082 0.132,-0.174 1.655,-2.007 2.493,-4.283 2.493,-6.769 0,-0.155 -0.003,-0.31 -0.01,-0.467 -0.075,-1.966 -0.572,-3.848 -1.438,-5.443 -0.425,-0.796 -0.856,-1.412 -1.318,-1.883 -0.106,-0.107 -0.224,-0.213 -0.338,-0.304 -0.136,-0.105 -0.271,-0.185 -0.404,-0.249 l -0.125,-0.062 -0.002,-0.004 c -0.25,-0.109 -0.489,-0.124 -0.731,-0.044 -0.558,0.219 -1.053,0.985 -1.231,1.91 -0.046,0.234 -0.146,0.433 -0.28,0.59 v 0.002 c -0.018,0.078 -0.038,0.155 -0.054,0.208 l -0.45,1.719 c -0.188,0.722 -0.376,1.444 -0.567,2.159 -0.326,1.245 -0.751,2.702 -1.428,4.055 -0.195,0.405 -0.551,0.654 -0.98,0.683 -0.474,0.028 -0.921,-0.208 -1.185,-0.607 -0.253,-0.384 -0.279,-0.859 -0.073,-1.264 0.548,-1.13 0.887,-2.333 1.242,-3.674 l 0.499,-1.904 c 0.172,-0.656 0.344,-1.308 0.514,-1.945 l 0.085,-0.336 c 0.01,-0.05 0.027,-0.093 0.042,-0.138 -0.205,-1.432 -0.898,-3.562 -3.259,-3.562 -1.525,0 -3.086,0.499 -4.397,1.406 -2.318,1.594 -3.606,4.463 -3.829,8.528 -0.268,4.779 0.588,9.753 1.343,14.142 m 47.828,7.845 c 0.763,0.386 1.697,0.682 2.673,0.758 -0.655,-0.325 -1.294,-0.747 -1.936,-1.192 -0.44,-0.306 -0.426,-0.833 -0.191,-1.173 0.204,-0.293 0.609,-0.476 1.017,-0.19 l 0.174,0.12 c 0.935,0.651 1.995,1.389 3.147,1.454 0.691,0.05 1.456,-0.217 1.862,-0.776 -3.361,-1.88 -7.192,-2.726 -10.971,-2.443 1.25,1.341 2.589,2.615 4.225,3.442 m 24.946,-16.104 c 0.309,-0.011 0.619,-0.023 0.927,-0.051 0.006,0 0.013,-10e-4 0.022,-0.002 0.181,-0.032 0.366,-0.076 0.553,-0.122 0.383,-0.096 0.756,-0.215 1.108,-0.354 1.686,-0.663 3.69,-2.019 4.768,-3.916 0.311,-0.853 0.587,-1.713 0.829,-2.58 -1.154,0.864 -2.278,1.767 -3.342,2.742 -0.254,0.233 -0.651,0.252 -0.903,0 -0.236,-0.236 -0.255,-0.668 0,-0.902 1.135,-1.04 2.337,-2.001 3.57,-2.921 -0.192,0.039 -0.384,0.077 -0.575,0.113 -0.206,0.039 -0.414,0.078 -0.621,0.12 -0.601,0.12 -1.291,0.276 -1.887,0.602 -0.615,0.337 -1.135,0.841 -1.637,1.329 l -0.045,0.043 c -1.153,1.121 -1.998,2.087 -2.656,3.04 -0.41,0.594 -0.743,1.163 -1.018,1.738 -0.139,0.292 -0.265,0.596 -0.372,0.903 -0.022,0.064 -0.054,0.141 -0.088,0.226 -0.003,0.005 -0.004,0.01 -0.006,0.015 h 0.007 c 0.478,0.008 0.941,-0.007 1.366,-0.023 m -2.013,0.159 0.013,-0.003 c -0.006,-0.007 -0.016,-0.017 -0.022,-0.022 z m 9.494,27.158 c 1.334,-0.922 2.4,-1.959 3.169,-3.081 0.431,-0.628 0.901,-1.361 1.022,-2.12 0.053,-0.333 -0.083,-0.995 -0.409,-1.237 -0.068,-0.051 -0.141,-0.077 -0.219,-0.081 -0.028,0.015 -0.06,0.024 -0.09,0.035 -1.292,2.507 -3.482,4.406 -5.614,6.196 -0.263,0.222 -0.644,0.258 -0.902,0 -0.228,-0.227 -0.265,-0.679 0,-0.903 1.966,-1.651 3.988,-3.37 5.254,-5.628 -0.039,-0.055 -0.09,-0.099 -0.117,-0.166 -0.486,-1.208 -2.016,-1.577 -3.14,-1.164 -1.512,0.557 -2.402,2.106 -2.883,3.307 -0.311,0.777 -0.557,1.594 -0.795,2.384 -0.265,0.88 -0.54,1.789 -0.906,2.657 -0.468,1.111 -1.045,2.177 -1.657,3.218 2.992,-0.966 5.34,-2.069 7.287,-3.417 M -65.45,11.005 c -0.056,-0.825 -0.115,-1.679 -0.28,-2.497 -0.26,-1.284 -0.847,-2.513 -1.745,-3.653 -1.147,-1.456 -2.618,-2.578 -4.179,-3.57 1.005,1.489 1.857,3.087 3.042,4.445 0.227,0.26 0.256,0.647 0,0.903 -0.231,0.231 -0.675,0.261 -0.903,0 -1.132,-1.298 -1.964,-2.811 -2.91,-4.24 0.189,1.714 0.478,3.412 0.858,5.092 0.549,0.854 1.442,1.498 2.368,2.065 1.198,0.732 2.467,1.392 3.786,1.971 -0.013,-0.173 -0.025,-0.346 -0.037,-0.516 m -52.112,-66.804 c 3.221,-3.39 7.311,-5.943 11.829,-7.382 l 0.026,-0.007 c 0.103,-0.031 0.208,-0.045 0.313,-0.045 0.261,0 0.499,0.093 0.691,0.271 0.3,0.278 0.433,0.721 0.341,1.128 -0.09,0.387 -0.364,0.678 -0.752,0.797 -3.968,1.256 -7.648,3.528 -10.656,6.581 -0.021,0.017 -0.05,0.052 -0.076,0.079 0.003,0.011 0.005,0.023 0.008,0.034 0.064,0.261 0.126,0.518 0.193,0.743 l 0.018,0.063 c 0.072,0.252 0.146,0.486 0.241,0.764 0.03,0.088 0.06,0.177 0.093,0.264 0.04,0.107 0.085,0.236 0.145,0.407 0.173,0.501 0.533,1.545 0.885,1.767 0.592,0.377 1.586,0.079 2.921,-0.849 0.448,-0.311 0.91,-0.675 1.414,-1.116 1.901,-1.631 3.48,-3.711 4.876,-5.548 l 0.656,-0.853 c 1.799,-2.336 4.23,-5.186 7.298,-6.871 -0.425,-0.048 -0.879,-0.09 -1.379,-0.13 -1.119,-0.09 -2.213,-0.138 -3.249,-0.142 h -0.142 c -2.941,0 -5.851,0.304 -8.653,0.901 -0.799,0.165 -1.747,0.367 -2.715,0.611 -1.554,0.394 -3.82,1.053 -5.544,2.237 -0.179,0.122 -0.349,0.262 -0.557,0.458 -1.191,1.164 -1.284,2.687 -1.001,3.636 0.374,1.248 1.4,2.047 2.776,2.202 m 75.354,128.091 c -0.091,-0.038 -0.174,-0.084 -0.259,-0.127 -0.675,0.288 -1.359,0.585 -2.067,0.898 0.81,-0.179 1.596,-0.432 2.346,-0.762 -0.007,-0.003 -0.012,-0.006 -0.02,-0.009 m -14.382,-85.252 -10e-4,-0.005 -4.107,-16.12 c -0.508,-1.983 -1.03,-4.03 -1.118,-6.141 -1.462,-0.166 -2.912,-0.089 -4.425,-0.012 -1.398,0.076 -2.835,0.152 -4.271,0.025 -3.191,-0.267 -6.548,-0.229 -9.967,0.127 -0.331,0.025 -0.725,0.051 -1.158,0.076 -1.004,0.038 -2.364,0.102 -2.987,0.458 l -0.026,0.026 c -0.318,0.279 -0.457,1.232 -0.546,1.868 -0.051,0.344 -0.102,0.674 -0.166,0.954 -0.699,3.025 -1.652,6.025 -2.555,8.925 -0.674,2.11 -1.36,4.309 -1.958,6.483 -0.318,1.183 -0.623,2.391 -0.928,3.598 -0.001,0.003 -0.001,0.005 -0.002,0.007 0.173,-0.049 0.363,-0.062 0.551,-0.064 l 3.25,-0.035 16.253,-0.179 c 2.709,-0.029 5.417,-0.059 8.126,-0.089 1.344,-0.014 2.72,-0.094 4.062,-0.045 0.314,0.012 1.319,0.051 1.973,0.143 m 0.876,3.44 -0.001,-0.004 c -0.159,-0.015 -0.318,-0.032 -0.476,-0.046 -1.731,-0.161 -3.461,-0.285 -5.211,-0.334 -5.148,-0.145 -10.286,0.219 -15.419,0.447 -2.565,0.114 -5.135,0.197 -7.705,0.165 -0.547,-0.007 -5.459,-0.352 -7.004,-0.459 -0.062,0.214 -0.113,0.438 -0.163,0.651 -0.063,0.292 -0.203,0.725 -0.369,1.246 -0.305,0.979 -1.233,3.954 -0.877,4.526 0.242,0.203 1.373,0.165 1.806,0.152 0.279,-0.012 0.546,-0.012 0.737,0 1.284,0.051 2.568,0.103 3.852,0.141 2.581,0.076 5.149,0.114 7.73,0.127 6.331,0.038 12.764,-0.013 19.095,-0.165 1.615,-0.039 3.23,-0.09 4.831,-0.141 h 0.356 c 0.204,0 0.534,0 0.573,0.038 0.05,-0.355 -0.42,-1.652 -0.624,-2.212 -0.152,-0.419 -0.279,-0.788 -0.343,-1.016 z m 6.307,48.098 -0.044,-0.055 c -0.288,-0.35 -0.659,-0.796 -1.075,-1.203 -0.151,-0.136 -0.296,-0.271 -0.457,-0.406 0.545,2.203 0.735,4.488 0.579,6.752 -0.057,0.815 -1.334,0.821 -1.277,0 0.174,-2.504 -0.06,-5.008 -0.789,-7.413 -0.371,0.083 -0.816,0.772 -0.942,3.482 l -0.007,0.147 c -0.078,1.476 0.051,2.928 0.384,4.312 0.209,0.868 0.523,1.735 0.826,2.575 0.349,0.966 0.704,1.95 0.914,2.965 0.085,-0.13 0.17,-0.259 0.255,-0.387 1.429,-2.167 2.779,-4.214 2.915,-6.887 0.075,-1.493 -0.332,-2.727 -1.282,-3.882 m 23.964,7.647 c -4.095,0.429 -11.813,0.714 -17.505,-2.174 -1.375,-0.698 -2.537,-1.696 -3.624,-2.763 0.006,0.063 0.025,0.122 0.03,0.186 0.128,1.679 -0.257,3.518 -1.143,5.466 -0.54,1.189 -1.286,2.276 -2.008,3.328 -0.545,0.794 -1.109,1.615 -1.576,2.47 -0.199,0.365 -0.645,0.444 -0.98,0.335 -0.352,-0.115 -0.551,-0.411 -0.505,-0.754 0.008,-0.066 0.016,-0.131 0.022,-0.196 l -0.014,-0.004 0.017,-0.032 c 0.154,-1.684 -0.417,-3.248 -0.97,-4.763 -0.485,-1.326 -1.065,-3.094 -1.258,-5.004 -0.167,-1.667 -0.069,-3.369 0.289,-5.058 0.159,-0.753 0.424,-1.577 1.001,-2.098 -0.602,-0.284 -1.223,-0.534 -1.837,-0.761 -0.682,-0.252 -1.387,-0.512 -2.059,-0.842 -2.593,-1.274 -4.62,-3.78 -6.416,-6.001 -1.937,-2.393 -3.654,-5.021 -5.105,-7.812 -1.151,-2.212 -2.124,-4.518 -2.926,-6.876 0.885,9.813 0.818,19.933 -2.896,28.904 0.116,0.056 0.237,0.091 0.347,0.17 0.788,0.569 1.224,1.631 1.085,2.642 -0.269,1.967 -1.84,3.779 -3.111,4.953 -3.343,3.089 -7.895,4.635 -11.487,5.636 -0.31,0.086 -0.642,-0.031 -0.845,-0.302 -0.201,-0.265 -0.221,-0.6 -0.053,-0.873 l 0.03,-0.048 c 1.152,-1.876 2.343,-3.816 3.054,-5.941 0.154,-0.463 0.295,-0.935 0.436,-1.409 0.447,-1.5 0.909,-3.05 1.843,-4.356 0.674,-0.943 2.123,-2.524 4.251,-2.524 h 0.003 c 1.1,0 2.068,0.381 2.785,1.063 2.838,-7.019 3.069,-14.837 2.911,-20.953 -0.141,-5.538 -0.726,-11.115 -1.383,-16.59 -0.012,0.186 -0.025,0.376 -0.038,0.56 -0.313,4.838 -0.636,9.842 -2.381,14.55 -1.683,4.535 -4.803,10.859 -10.119,15.232 -2.299,1.893 -4.844,3.058 -7.564,3.461 -0.658,0.099 -1.322,0.162 -1.984,0.225 -0.98,0.094 -1.994,0.192 -2.966,0.405 -1.915,0.421 -3.601,1.372 -4.997,2.246 -5.181,3.246 -10.074,6.312 -16.646,7.243 -4.534,0.641 -9.184,0.616 -13.772,-0.032 3.202,2.264 6.793,4.734 10.524,7.046 1.321,0.815 2.691,1.4 4.141,2.019 l 0.097,0.041 c 0.872,0.371 1.859,0.791 2.833,1.264 1.261,0.649 2.531,1.436 3.853,2.356 0.186,-2.222 1.448,-3.861 3.611,-4.625 0.934,-0.324 1.931,-0.488 2.965,-0.488 2.604,0 4.991,1.009 6.179,1.609 2.54,1.251 4.931,3.285 7.529,6.401 2.614,3.155 4,5.899 4.494,8.898 l 0.14,0.866 c 0.038,0.116 0.055,0.21 0.049,0.256 l 0.036,0.17 c 0.008,0.034 0.014,0.079 0.022,0.115 4.044,2.771 8.394,5.096 12.961,6.98 0.607,-1.422 2.012,-2.422 3.656,-2.429 1.396,-0.006 2.624,0.706 3.343,1.787 3.349,-1.343 6.735,-2.452 10.258,-3.587 l 0.763,-0.254 c 3.076,-0.992 6.407,-2.517 9.624,-3.992 1.17,-0.55 2.382,-1.096 3.578,-1.617 l -0.005,-0.006 v -0.035 c -0.302,-0.458 -0.551,-0.943 -0.741,-1.441 -1.191,-3.005 -1.028,-6.88 2.022,-8.767 3.653,-2.253 7.998,-2.513 10.947,-2.513 2.316,-0.013 4.536,-0.407 6.974,-1.233 0.063,-0.078 0.126,-0.158 0.196,-0.217 l 16.37,-13.836 c -0.205,-0.29 -0.358,-0.615 -0.475,-0.959 -4.8,2.877 -10.242,4.693 -15.88,5.282 M -9.736,14.833 c -0.04,0.256 -0.07,0.515 -0.07,0.778 0,1.018 0.477,1.99 0.938,2.928 l 0.18,0.369 c 0.534,1.109 1.093,2.173 1.756,3.127 -0.111,-1.739 -0.201,-3.684 -0.167,-5.653 L -7.105,16.381 C -7.458,16.311 -7.751,16.22 -8.033,16.094 -8.681,15.806 -9.256,15.373 -9.736,14.833 M 3.071,5.688 C 2.943,6.798 2.686,7.854 2.306,8.827 1.905,9.855 1.381,10.8 0.75,11.638 c -0.388,0.513 -0.785,0.995 -1.212,1.471 -0.03,0.034 -0.059,0.062 -0.139,0.143 -0.372,0.407 -0.705,0.742 -1.018,1.027 -0.089,0.082 -0.178,0.154 -0.266,0.224 l -0.147,0.12 c -0.245,0.205 -0.492,0.411 -0.736,0.582 -0.124,0.087 -0.246,0.16 -0.368,0.233 l -0.122,0.074 c -0.204,0.124 -0.414,0.244 -0.65,0.365 -0.077,3.058 0.144,6.189 0.344,8.958 l 0.016,0.218 c 0.278,3.946 0.558,8.015 0.158,12.087 0.66,0.669 1.072,1.585 1.077,2.6 0.008,2.058 -1.652,3.734 -3.709,3.745 l -13.322,11.249 c 0.229,0.464 0.162,0.997 -0.22,1.411 -2.335,2.534 -3.897,5.684 -5.43,8.775 l -0.131,0.263 c -0.642,1.285 -1.306,2.614 -2.026,3.884 -1.337,2.337 -2.625,4.091 -4.054,5.52 -1.455,1.481 -3.672,3.451 -6.113,3.451 -0.154,0 -0.307,-0.014 -0.442,-0.031 -0.994,-0.196 -1.748,-0.689 -2.24,-1.463 -0.727,-1.133 -0.691,-2.57 -0.501,-3.67 -2.275,1.293 -4.986,1.86 -7.612,1.808 -3.012,1.373 -6.063,2.758 -9.025,3.712 l -0.762,0.242 c -3.648,1.175 -7.149,2.322 -10.579,3.726 -0.352,1.839 -1.961,3.232 -3.903,3.241 -1.811,0.007 -3.328,-1.199 -3.826,-2.849 -4.311,-1.719 -8.41,-3.809 -12.234,-6.269 l 0.036,0.287 c 0.089,0.762 0.221,1.915 0.614,2.277 0.544,0.493 0.451,1.253 0.086,1.716 l -0.006,0.007 c -0.451,0.537 -1.191,0.603 -1.646,0.26 -2.742,-1.919 -6.073,-2.427 -9.266,-2.69 -0.709,-0.063 -1.43,-0.101 -2.216,-0.142 -2.564,-0.154 -5.215,-0.312 -7.62,-1.251 -2.802,-1.067 -5.201,-3.819 -4.364,-7.017 0.362,-1.324 1.221,-2.304 2.508,-2.896 -0.059,-0.04 -0.106,-0.081 -0.164,-0.122 -1.496,-0.487 -2.944,-1.099 -4.249,-1.996 -0.992,-0.687 -1.882,-1.513 -2.582,-2.505 -0.451,-0.634 -0.8,-1.338 -1.231,-1.982 -0.09,-0.049 -0.181,-0.109 -0.271,-0.155 -0.315,-0.179 -0.609,-0.323 -0.854,-0.44 l -0.341,-0.165 c -0.537,-0.247 -1.075,-0.478 -1.605,-0.706 l -0.383,-0.165 c -1.618,-0.7 -3.291,-1.425 -4.884,-2.444 -4.011,-2.551 -8.174,-5.377 -13.099,-8.89 l -0.227,-0.155 c -0.555,0.324 -1.191,0.524 -1.88,0.527 -2.093,0.009 -3.796,-1.68 -3.805,-3.772 -0.002,-0.345 0.058,-0.672 0.143,-0.99 -0.052,-0.137 -0.104,-0.298 -0.111,-0.479 -0.086,-3.744 -0.137,-7.402 0.187,-10.997 0.014,-0.159 0.032,-0.316 0.05,-0.474 l 0.06,-0.562 c 0.023,-0.229 0.046,-0.458 0.075,-0.686 0.05,-0.399 0.103,-0.771 0.158,-1.133 -1.265,0.871 -2.712,1.693 -4.337,2.443 -0.412,0.181 -0.812,0.363 -1.271,0.572 -1.495,0.653 -3.042,1.327 -4.436,2.481 -0.171,0.145 -0.395,0.317 -0.647,0.493 l -0.093,0.071 c -0.812,0.625 -2.323,1.788 -2.366,2.412 l 0.079,0.684 h -0.246 c -0.208,0.354 -0.574,0.582 -1.013,0.611 -0.379,0 -0.883,-0.164 -1.17,-0.611 h -0.217 l 0.029,-0.584 c -0.261,-2.153 -0.622,-4.328 -0.971,-6.431 l -0.085,-0.524 c -0.4,-2.473 -0.814,-5.031 -1.068,-7.569 -0.397,-3.806 -0.688,-8.2 0.899,-12.179 1.391,-3.464 4.361,-5.898 7.95,-6.513 0.734,-0.116 1.315,-0.169 1.829,-0.169 1.303,0 2.364,0.304 3.151,0.901 0.538,0.397 0.983,0.929 1.346,1.551 2.082,-3.369 2.263,-6.73 2.203,-10.691 -0.013,-0.916 -0.038,-1.818 -0.076,-2.733 -0.046,-1.205 -0.09,-2.432 -0.079,-3.685 -0.035,-0.383 -0.069,-0.786 -0.103,-1.162 l -0.06,-0.664 c -0.005,-0.098 -0.015,-0.192 -0.024,-0.288 -0.01,-0.102 -0.02,-0.204 -0.026,-0.302 -0.384,-4.443 -0.567,-10.942 1.826,-16.969 -1.338,-0.802 -2.244,-2.249 -2.251,-3.922 -0.011,-2.546 2.043,-4.618 4.589,-4.629 0.202,-10e-4 0.396,0.032 0.592,0.057 3.772,-3.273 7.752,-5.917 11.195,-8.066 0.954,-0.599 1.909,-1.184 2.863,-1.769 l 0.667,-0.412 c 0.911,-0.562 1.827,-1.127 2.741,-1.712 l 0.877,-0.535 c 1.198,-0.73 2.525,-1.561 3.571,-2.612 -0.022,-0.009 -0.04,-0.015 -0.063,-0.024 -0.118,-0.049 -0.236,-0.097 -0.349,-0.155 -0.15,-0.074 -0.294,-0.156 -0.439,-0.244 -0.14,-0.086 -0.276,-0.178 -0.445,-0.3 -0.11,-0.078 -0.221,-0.157 -0.324,-0.245 -0.262,-0.219 -0.484,-0.434 -0.679,-0.657 -0.478,-0.555 -0.841,-1.209 -1.078,-1.943 -0.276,-0.843 -0.357,-1.708 -0.244,-2.574 0.494,-3.728 3.985,-5.197 7.219,-6.282 4.489,-1.504 9.188,-2.265 13.968,-2.265 1.911,0 3.826,0.13 5.731,0.375 4.781,-2.501 9.889,-4.168 15.226,-4.965 0.362,-2.474 2.469,-4.384 5.045,-4.395 2.84,-0.012 5.151,2.28 5.164,5.119 0,0.195 -0.035,0.378 -0.055,0.567 l 0.132,0.048 c 6.586,2.428 13.171,4.843 19.756,7.259 l 0.115,0.038 c 0.102,0.039 0.191,0.089 0.28,0.153 0.279,-0.038 0.572,-0.064 0.839,-0.102 h 0.051 c 0.8,-1.818 2.542,-2.873 4.703,-2.873 0.255,0 0.522,0.013 0.789,0.038 2.504,0.28 4.602,2.06 6.077,5.149 0.635,1.356 1.128,2.782 1.617,4.167 0.075,0.011 0.149,0.026 0.2,0.05 0.082,0.02 0.152,0.055 0.222,0.089 l 0.093,0.053 c 0.042,0.03 0.094,0.062 0.182,0.117 1.35,1.024 2.86,2.016 4.293,2.937 l 0.296,0.195 c 0.76,0.499 1.537,1.009 2.304,1.538 l 1.98,1.365 c 1.737,1.194 3.706,2.546 5.625,3.752 5.181,3.286 10.412,6.053 15.568,8.279 0.243,-0.041 0.488,-0.077 0.742,-0.078 2.535,-0.011 4.598,2.035 4.609,4.569 0.009,2.057 -1.345,3.781 -3.206,4.374 0.503,2.896 0.511,5.818 0.51,8.665 l 0.001,1.079 c 0.007,3.105 0.13,7.138 1.018,10.802 0.065,0.27 0.036,0.525 -0.032,0.766 1.689,2.536 3.388,5.313 4.449,8.494 l 0.037,0.114 c 0.637,2.177 0.84,4.313 0.605,6.349"
             style="fill:#5e8549;fill-opacity:1;fill-rule:nonzero;stroke:none"
             id="path104" /></g></g></g></g></svg>
