<svg xmlns="http://www.w3.org/2000/svg" width="120" height="120" fill="none">
  <path fill="#5E8549" d="m117.4 62.6-1 2.1c-.7 1.5-1.6 3-2.5 4.3v.1l-.2.2-.1.3-2.2 3.7a38 38 0 0 1-2.2-8l-.4-1.2-.5-1.3c-1-2.6-2-5.1-.1-7.4l.2-.3.5-.3.5-.2h.4c1 3 1.3 6 .7 9 0 .4.2.8.5.8h.2c.2 0 .7-.2.7-.7.3-3.2.5-6.5-.7-9.6l.2-.5.1-.3.2-.2c.2-.4.5-.6.8-.6h.6l.3.1.3.1 1.5 1a8 8 0 0 1 2.5 6l-.3 3v-.1Zm-16.2 32.3L96.7 98l-1.1.7-2 1.3-.7.5.3-.2c1.6-3.1 4.1-4.8 6.7-4.8h.2c.3 0 .6-.2.7-.6v-.1c0-.3-.1-.5-.4-.6A20.8 20.8 0 0 0 80 95.5c-3 2-6.4 5-6 8.5.1 2.2 1.5 3.6 4 4.6l-11.9 4.3a3.7 3.7 0 0 0-3.4-1.6 3.6 3.6 0 0 0-3 2.3c-2.6-.4-5.2-1.1-7.7-2.1l.2-.1h.2l.2-.2v-.1l.2-.2v-.7a1 1 0 0 0-.2-.5.7.7 0 0 0-.5-.2H52c-1.5 0-2.7-.5-4-1.3-1.6-1.4-3.2-3-4.4-5l-.7-.9c-1-1.3-2.2-2.5-3.4-3.7a6.9 6.9 0 0 0-2.9-1.4h-1.3l-.6.3-.4.5a4 4 0 0 0-.6 1l-.2.4v.1l-.1.2a12 12 0 0 0-2.3-1.7l-3.2-2-1.6-1a83 83 0 0 1-7.8-5.6 3.4 3.4 0 0 0-2-5.5 26.7 26.7 0 0 1-1.1-13.2c.5-5.4.7-9.8.7-13.8l1-1.5a11 11 0 0 0 .6-9c-.3-.7-.7-1.5-1.4-2.3v-.5c-.8-3.4-1-7-1-10.5h.5a2.7 2.7 0 0 0 2.1-1 2.8 2.8 0 0 0 .6-2.2 31 31 0 0 1 14.2 0c2 .5 4 1.4 6.3 2.9-.6 0-1 .2-1.5.4-1.9.8-3.3 2.4-4.5 3.8a.7.7 0 0 0-.1.7l.3.2a15 15 0 0 0 10.2-2l.3-.3a8 8 0 0 0 2.6.9l1.5.1 2.8.5c1.4.5 2.7 1.3 3.8 2.4 1.8 1.6 3.3 3.7 4.8 6.4l.2.6-.2-.2A7.3 7.3 0 0 0 55 45h-.6v.1h-.7a.6.6 0 0 0-.5.4c-.2.4 0 1 .3 1.4a12 12 0 0 0 3 4.5 6 6 0 0 0 2.7 1.6l.9.2 1.7.4.1 1.5c.4 2.7.7 5.5.8 8.3H61c-2.7 0-5.5 0-8.3.2h-.4c-.8 0-1.8 0-2.3.5-.7.8-.2 2.5.5 4.5l.2.8c.8 3.4 1.7 6.7 2.7 10a50 50 0 0 1 1.8 6.5l.1.5c0 .8.2 1.6.8 2.2h.2c.7.5 1.7.6 2.6.6h.8c2.5.3 5 .3 7.4.1h2.8c1.3.1 2.6.2 4 0l.5-.1v-.5c0-1.6.4-3.2.8-4.7l4.1-16.6.2-.5c.4-1.1.7-2 .4-2.4-.2-1-1.1-1-1.5-1h-.2l-12.8-.1a15 15 0 0 0 4.6-3.7c.7-1 1.2-1.8 1.4-2.7l.3-2.2.1-1.5c0-.2 0-.4-.2-.6H71c-1.5.6-3 1.3-4.3 2.2a34.3 34.3 0 0 1 9-15c.8-.6 1.8-1 2.8-1.4 1-.3 1.8-.7 2.7-1.4 1-.8 1.8-1.6 2.6-2.5l1.3-1.4c3.1-2.9 7.9-3.2 11.7-3 4.8 0 9.5 1.5 13.5 4.1.2.5.5 1 .9 1.3.4.4.9.6 1.4.6.2 2.7 0 5.5-.2 8.1v.3c-1 1-1.7 2.2-2.3 3.5l-.1.3c-.4.7-.7 1.4-.9 2.2V52l.2.4v.3h-.2c-.6.2-1.2.4-1.6.8h-.2v.1c-.6.5-1 1.1-1.4 1.8v.3a6.7 6.7 0 0 0-.6 4.2l1 2.9.8 2.2.1.3.7 2.9c.6 2.7 1.5 5.4 2.7 7.9v.4h.2a.9.9 0 0 0 .9.3l.4-.2.3-.4V76l.2-.1-.1-.2.4-1.6v4.5c0 2.2 0 4.3-.5 6.4a3.3 3.3 0 0 0-1.7 2 3.4 3.4 0 0 0 .1 2.6 70.6 70.6 0 0 0-9.7 5.3Zm-10.5 7.3-.3.1v.3l-.4.9v.5c-.3 1.5-.8 3-1.6 4.1a4 4 0 0 1-2.7 2c-1 0-2.2-.2-2.5-1.3v-.1l-.2-.1v-.2c0-1.4.3-3.3 1-4.6.6-1.4 1.7-2.5 2.7-3.6.2-.2.2-.3.2-.5s0-.4-.2-.5c-.3-.3-.7-.3-1 0a13.8 13.8 0 0 0-3 4c-.6 1.6-1 3.2-1 4.8h-.3l-.1-.1v-.1h-1a7 7 0 0 1-3.2-1.2c-1.7-1.2-2.2-3-1.3-4.8 1.4-3 5-5.1 6.9-6.1 4.6-2.4 10-2.8 14.8-1.2-3.6 1.2-5.7 5-6.6 7.1l-.1.4v.2Zm-77.5-44h.5v1.5l-.5-1.5Zm22.7-42 .8-.6-.1.2v.2h-.2c-.7.7-1.4 1-2 1.5L36 16ZM90.2 8l.5-.4c1 0 2.2 1 3.7 2.8 1.3 1.6 2.4 3.3 3.2 5.2l.3.5c.7 1.5 1.3 2.9 2.1 4.1l-.3-.1-2.6-.8c-1-.2-2.2-.2-3.3-.2-2.3 0-4.5-.5-6.6-1.5-.7-.4-1.1-1.2-1.1-2.3V15c0-1 .4-2 1-2.7l.2-.2.2-.2.2-.1a2 2 0 0 1 1-.2h.5l.4.1c.7 1 1.6 2 2.6 3h.5l.4-.2.2-.5c0-.2 0-.3-.2-.4-1-.8-1.8-1.8-2.5-3-.3-.6-.5-1.3-.5-2l.1-.7Zm-49.6 6.7.5-.3.3-.2h.2l.6-.4c1.1-.1 2.1-.6 3.3-1l3.7-2.3c.3-.1.4-.3.4-.6 0-.2-.1-.5-.4-.6a.4.4 0 0 0-.6 0c-2.2 1.5-4.6 3-7.4 3.3H41l-.6-.2H40c-.7-.3-1.3-.6-1.4-1.1l-.1-.5c0-.3 0-.6.2-.8.8-1.9 3.2-2.2 5-2.3l2-.1c2.3-.3 4.6-.4 6.8-1.3L52.2 8v.4l-.3 1.4c-.2 1-.4 2-.9 2.9a18 18 0 0 1-2.1 3.3 13.9 13.9 0 0 1-6 4.6c-1.2.4-2.5.5-3.7.2-1-.3-1.5-1-1.5-2v-1.1l.2-.2v-.2l.1-.2V17l.3-.3v-.1c.6-.8 1.4-1.4 2.3-1.8ZM3.5 40.3l.3-2.3 1.3 1 .4.3.1.1c1 .8 2 1.3 3 1.7 2 .8 3.8 2 5.4 3.3l.2.2.4.4v.1l.1.1a7.7 7.7 0 0 1 1.8 5.3c0 1.4-.4 2.8-1 4-.3.6-.7 1-1.2 1.5 0 .2-.1.2-.3.2l-.5.1c-.5-.1-.8-.7-1-1.4l-.1-.4v-.2l-.4-1.2-.4-1.6c-.2-1-.6-2-1-3a.8.8 0 0 0-.7-.4c-.4 0-.7.1-.9.4-.2.3-.2.6 0 1 .4.8.7 1.7.9 2.6l.3 1.4.4 1.4v.3c0 1.1-.6 2.6-2.3 2.6-1 0-2.1-.3-3.1-1-1.7-1.1-2.6-3.3-2.7-6.2-.1-3.4.2-7 1-10.3Zm34.1-5.7a5 5 0 0 1 2-.6L38 35c-.3.1-.3.6-.1.8.1.2.4.4.7.1h.1c.7-.5 1.4-1 2.3-1.1.5 0 1 .1 1.3.6-2.4 1.3-5.1 2-7.9 1.7 1-1 1.9-1.9 3.1-2.5Zm17.9 11.7h.6l1.1.4a7 7 0 0 1 3.5 3l.5 1.7-2.3-2a.5.5 0 0 0-.7 0c-.1.2-.2.5 0 .7l2.6 2.1h-.4l-.5-.1-1.4-.4-1.1-1a15 15 0 0 1-3-4.2v-.2h1Zm5.2-19.8a8 8 0 0 1 2.3 2.2c.3.5.7 1 .7 1.6 0 .2 0 .7-.3.8h-.2c-1-1.7-2.4-3.2-4-4.4a.5.5 0 0 0-.7 0v.6c1.4 1.2 2.9 2.4 3.8 4.1v.2c-.4.8-1.5 1-2.3.8-1-.4-1.7-1.5-2.1-2.4l-.5-1.8a16 16 0 0 0-1.9-4.2c2.2.7 3.9 1.5 5.2 2.5Zm9.9 28a8 8 0 0 1-1.4 4.5c-.9 1-1.9 1.9-3 2.5l2.1-3.2c.2-.2.2-.5 0-.7h-.6l-2.1 3.1.6-3.6c.4-.7 1-1.2 1.7-1.5l2.7-1.5v.4ZM33.4 103c2.3 2.5 5.2 4.4 8.4 5.4h.3c.1 0 .4 0 .5-.2.2-.2.3-.5.2-.8 0-.3-.3-.5-.6-.6-2.8-1-5.4-2.6-7.5-4.7v-.7l.3-.6v-.2l.1-.3.6-1.3c.5-.2 1.2 0 2.2.6l1 .8c1.3 1.2 2.4 2.7 3.4 4.1l.5.6c1.3 1.7 3 3.8 5.2 5-1 .2-2.2.2-3.3.2h-.1c-4.2 0-8.3-1-12.1-2.7l-.4-.4a2.7 2.7 0 0 1-.7-2.6c.3-.9 1-1.5 2-1.6Zm53.8-93H87h.2ZM76.9 72l-3 11.6a24 24 0 0 0-.8 4.5c-1 .2-2 0-3.2 0h-3c-3.4.3-6.7.2-10-.4-.3-.2-.4-1-.4-1.5l-.2-.6-1.8-6.6-1.5-4.6-.5-2.7h.3l2.3.1 11.6.2h10.1Zm.6-2.6h-.3c-1.3.2-2.5.3-3.8.3-3.7.1-7.3-.1-11-.3l-5.5-.1-5 .3v-.5l-.4-.9a11 11 0 0 1-.6-3.3c.2-.2 1 0 1.3 0h.5l2.8-.2h5.4l17.2.1h.7l-.4 1.6-.3.8-.6 2.2Zm4.4-35-.7 1-.3.2c.3-1.6.5-3.2.3-5 0-.5-.9-.5-.8 0 0 2 0 3.7-.6 5.6-.3-.1-.6-.6-.7-2.6v-.1c0-1 0-2.2.3-3.2l.5-1.9.8-2.1.1.3c1 1.5 2 3 2.1 5 0 1-.3 2-1 2.9ZM99.1 29a24 24 0 0 0-12.5 1.6 10 10 0 0 0-2.6 2v-.2c0-1.2-.1-2.6-.8-4L81.8 26l-1.1-2a.8.8 0 0 0-.8-.2c-.2.1-.3.2-.3.5v.2c.1 1.2-.3 2.4-.7 3.5-.3 1-.7 2.2-.9 3.6a15 15 0 0 0 .2 3.7c.1.5.3 1.1.7 1.5l-1.3.6-1.4.5a15.1 15.1 0 0 0-4.6 4.4A34.1 34.1 0 0 0 65.9 53c.5-7.1.5-14.5-2.2-21l.3-.1a2 2 0 0 0 .7-2c-.1-1.4-1.3-2.7-2.1-3.6a21.2 21.2 0 0 0-8.2-4l-.7.1a.6.6 0 0 0 0 .8c1.1 1.6 2 3.4 2.5 5.3l1.3 3.2c.5.6 1.6 1.8 3 1.8.8 0 1.5-.2 2-.7 2 5 2.2 10.7 2.2 15.2a132 132 0 0 1-1 11.6c-.3-3.5-.5-7.1-1.8-10.5A26.4 26.4 0 0 0 54.7 38a10.9 10.9 0 0 0-5.4-2.4l-1.4-.2a10.8 10.8 0 0 1-5.7-2 29 29 0 0 0-11.9-5.3c-3.2-.4-6.6-.4-9.8 0l7.5-5 3-1.5 2-1c1-.4 1.9-1 2.8-1.7 0 .8.3 1.5.8 2.1a3 3 0 0 0 1.8 1.3c.7.2 1.4.4 2.1.4a9 9 0 0 0 4.4-1.2c2-1.1 4-2.7 5.4-4.6a14 14 0 0 0 3.2-6.6v-.8h.2v-.2c2.8-2 6-3.6 9.2-5A2.9 2.9 0 0 0 65.3 6a2.8 2.8 0 0 0 2.6-1.3c2.4 1 4.8 1.8 7.3 2.6l.6.3c3.2 1 6.4 2.4 9.4 4l-.5 1c-.8 2.2-.7 5.1 1.5 6.5 2.5 1.6 5.7 1.8 7.8 1.8 1.6 0 3.2.3 5 1L110.9 32l-.4.7A27.4 27.4 0 0 0 99.1 29Zm11.2 22.8v-.6c0-.7.3-1.4.6-2.1l.2-.3c.3-.8.7-1.6 1.2-2.2v4l-.8.3c-.5.2-.9.5-1.2 1Zm9.1 6.6c-.2-2-1-3.9-2.5-5.3V53l-1-1h-.1l-.5-.5-.3-.1-.6-.4c0-2.2.2-4.5.3-6.5v-.1c.2-3 .5-5.8.2-8.8a2.7 2.7 0 0 0-2-4.7l-9.5-8.1c.2-.4.2-.7-.1-1a25.3 25.3 0 0 1-3.9-6.4l-.1-.3-1.4-2.8c-.8-1.4-1.8-2.8-2.9-4-1-1-2.6-2.5-4.4-2.5h-.3c-.7.2-1.3.5-1.6 1.1-.5.8-.5 1.8-.3 2.6-1.7-.9-3.6-1.3-5.5-1.3-2.2-1-4.3-2-6.5-2.7l-.5-.1c-2.6-.9-5.1-1.7-7.5-2.8a3 3 0 0 0-1-1.6 2.8 2.8 0 0 0-4.6 1.4c-3 1.2-6 2.7-8.7 4.5v-.2c0-.5.2-1.4.5-1.6.4-.4.3-1 0-1.3a.8.8 0 0 0-1.1-.1c-2 1.3-4.3 1.7-6.7 2h-1.6c-1.8.1-3.7.2-5.4 1-2 .7-3.7 2.7-3.1 5a3.2 3.2 0 0 0 1.8 2.1l-.1.1c-1 .4-2.2.7-3 1.5-.8.5-1.4 1-2 1.8l-.8 1.4-.2.1-.6.4h-.3l-1.1.6-.2.1c-1.2.5-2.4 1-3.6 1.8-3.2 2-6.3 4.2-9.3 6.4l-.2.2c-.4-.2-.8-.4-1.3-.4a2.7 2.7 0 0 0-2.1 1 2.8 2.8 0 0 0-.5 2.4l-.1.4.1 8v.7l.3 1.4c-1.3-.9-2.6-1.6-4-2.2a15.3 15.3 0 0 1-3.7-2.2c-.6-.5-1.7-1.3-1.7-1.8V35H4c-.2-.2-.5-.4-.8-.4-.2 0-.6.1-.8.4h-.2v.5c-.1 1.5-.4 3-.7 4.6v.4L.8 46a18 18 0 0 0 .6 8.9 7.4 7.4 0 0 0 7 4.9 3 3 0 0 0 2.2-.8 3 3 0 0 0 1-1 14 14 0 0 1 1.6 7.7c0 1.6 0 3.1-.2 4.7v1.9a26 26 0 0 0 1.2 12.3c-.6.4-1 1-1.3 1.7a3.4 3.4 0 0 0 1 3.8 3 3 0 0 0 2 .7h.4c2.7 2.4 5.5 4.2 8 5.8l2 1.3.5.3 2 1.3.7.3c.7.6 1.7 1.2 2.5 2h-.3l-.9.7a4 4 0 0 0-1.4 3.8c.3 2.6 2.8 3.7 5.1 4.5 4.5 1.5 9.4 2 14 1.4 3.5 1.8 7.2 3 11 3.6 0 1 .5 1.9 1.2 2.5a3.6 3.6 0 0 0 5.1-.3 4 4 0 0 0 1-2.7v-.5l14.1-5.3.3-.1h.6c.3.7.8 1.3 1.4 1.6.6.4 1.3.6 2 .6h.5c1.8-.3 3.3-1.6 4.4-3.8l1.1-3h.2l.2-.1.1-.2 3.1-2.2h.2l1.7-1.1 1.4-1 4-2.8c3.7-2.4 7.4-4.4 11.1-6h.5c.8 0 1.6-.3 2.2-.8a3.4 3.4 0 0 0 .6-4.3c-.4-.7-1-1.2-1.8-1.4.4-2 .4-4.2.4-6.3v-.7c-.1-2.9.1-5.7.7-8.5a28 28 0 0 0 3.2-6.2c.5-1.6.7-3.2.4-4.7"/>
</svg>
