<svg width="267" height="300" fill="none" xmlns="http://www.w3.org/2000/svg">
  <style>
    :root {
      --logo-light: #20D6DE;
      --logo-dark: #5644A5;
    }

    @media(prefers-color-scheme: dark) {
      :root {
        --logo-light: #FFA53A;
        --logo-dark: #E535AB;
      }
    }
  </style>
  <path d="M218.3 126.5h-.1l-.1-.2-.2-.1v-.2h-.2l-.2-.2h-.1v-.1l-15.9-10-16.5-12.1-2.8-11.2a3.8 3.8 0 0 0-2.5-2.6c-.2-.1-2.4-.9-5.8-1.8l-17.1-22.6a3.8 3.8 0 0 0-3-1.5 3.8 3.8 0 0 0-3 1.5l-3.6 4.6-6.9-9.2a3.8 3.8 0 0 0-5.7-.4L127 68a3.8 3.8 0 0 0-.8 4.1l2 4.6.1.3 5.2 9.7v3.7c-2.5 1-5 2.2-7.4 3.5l-24-17.6a3.8 3.8 0 0 0-5.9 4l5 17.2a4 4 0 0 0 1 1.7l10.5 9.7a416.5 416.5 0 0 0-30.9 35v.1A473.9 473.9 0 0 0 56 180.2a561 561 0 0 0-12.9 21 3.8 3.8 0 0 0 1.4 5.2l60 34a3.8 3.8 0 0 0 5.4-2.3 480.5 480.5 0 0 1 32.6-86.6 45 45 0 0 0 16.4 2.4c13.6 0 29-3 33.3-4l11.8 4.5 1.5.3 12.8-.8a3.8 3.8 0 0 0 3.1-2c.3-.6 3-5.8 3-11.5 0-6-5.6-13-6.2-13.9ZM153.7 74l9 12-3.9-.4-7-9.3 2-2.3Zm-43.6 48.5 1 3.6c2.1 7.7 1.1 9.9 1 10-.5.5-3.2 2.2-15 4.5l-3.3.6c5.2-6.4 10.6-12.6 16.3-18.7Zm-35.9 55.9a46.7 46.7 0 0 1 .1 19.3c-2.4-2.9-6.4-8.5-10.4-15.4 2.6-4 5-7.7 7.5-11.2a30 30 0 0 0 2.8 7.3Zm35 36.2c-4.7.7-10 .5-11.4-.8-.6-.8-1.7-5.1-1.4-13.4.1-6.3 1-10.7 1.6-12.7a48 48 0 0 1 10.6 4.9c2.6 1.4 5 2.9 6.8 4-2.1 6-4.2 12-6.1 18Zm15.5-42.2a365.8 365.8 0 0 1-30-7.2c2.4-1 4.8-1.8 7.3-2.5 5.6-1.6 11.8-3.1 16.4-4.2l4.6-1.1c2.5-.7 5.3.7 7.3 2a380 380 0 0 0-5.6 13Zm90.9-25.8-9.6.6-12.1-4.6c-.7-.2-1.5-.3-2.2-.1-.2 0-18 3.9-32.7 3.9-10.2 0-14.2-1.9-15.7-3l-.2-.2h-.2l-.1-.2-7.5-3.8a3.8 3.8 0 0 0-3.5 6.8l4 2-2.2 4.5a16.5 16.5 0 0 0-12.5-2.4l-4.4 1c-6.3 1.5-12.5 3.1-18.6 5-9.7 3-13.4 5.2-13.8 8.7-.3 1.5.2 3.6 3.3 5.5 1.2.7 2.8 1.4 5 2.2a149 149 0 0 0 13.8 3.8c5.1 1.2 10.2 2.2 15.4 3.2a490 490 0 0 0-3.8 9.8 173 173 0 0 0-7.2-4.2 58 58 0 0 0-8.8-4c-3-1-6.6-2-9 .4-1 1-2.3 2.8-3.3 8.4-.6 3.8-.9 7.6-1 11.4 0 9.2 1.1 15.2 3.7 17.8 2.3 2.3 6 3.5 11.4 3.5l3-.1-2.7 9-52.4-29.7 7.6-12.4 3.5 5.4c6.8 10.1 9.9 12.2 12.7 12.3h.1a4.8 4.8 0 0 0 4.1-2.3c2.5-3.8 3-11.7 3.2-14.9.2-4.1.1-11.6-2.2-15.4a39.6 39.6 0 0 1-3.2-12c3-4.2 6.2-8.4 9.4-12.6 3.9-.5 7.8-1.1 11.7-1.9 13.1-2.5 16.9-4.7 18.5-6.2 3.3-2.9 3.8-8.3 1.5-17.1a78 78 0 0 0-2.6-8.2l4.8-4.6a3.8 3.8 0 0 0 0-5.6l-12.6-11.8-1.6-5.4 17 12.4a3.8 3.8 0 0 0 4 .2s2.6-1.4 6.2-3A3.8 3.8 0 0 0 141 97V85.8c0-.6-.2-1.3-.5-1.8L135 73.6l-.9-2 2.7-2.8 20 26.8a3.8 3.8 0 0 0 6.9-2c5 .9 9.2 2 11.5 2.7l2.7 10.4a4 4 0 0 0 1.4 2.2l17.8 13 .2.2 2 1.3h-1.7a3.8 3.8 0 1 0 .3 7.6c.1 0 8.8-.4 15 1.2 1.8 2.4 3.9 6.1 3.9 8.2 0 2.2-.7 4.5-1.3 6Z" fill="url(#a)"/>
  <path d="M156.2 108.5a3.8 3.8 0 1 0 0 7.5 3.8 3.8 0 0 0 0-7.5Z" fill="url(#a)"/>
  <path fill-rule="evenodd" clip-rule="evenodd" d="M133.4 15.2 13.2 82.7v134.6l120.2 67.5 120.3-67.5V82.7L133.4 15.2ZM267 75 133.4 0 0 75v150l133.4 75L267 225V75Z" fill="url(#a)"/>
  <defs>
    <linearGradient id="a" x1="137.4" y1="0" x2="133.5" y2="300" gradientUnits="userSpaceOnUse">
      <stop offset="0" stop-color="var(--logo-light)"/>
      <stop offset="1" stop-color="var(--logo-dark)"/>
    </linearGradient>
  </defs>
</svg>
