<svg width="78" height="30" viewBox="0 0 78 30" fill="none" xmlns="http://www.w3.org/2000/svg">
<style>
    :root {
      --logo-color: #0B0D11;
    }

    @media(prefers-color-scheme: dark) {
      :root {
        --logo-color: #F5F6F7;
      }
    }
  </style>
<path fill-rule="evenodd" clip-rule="evenodd" d="M1.14552 11.2636C1.49179 11.3815 1.86112 11.4485 2.24663 11.4485C2.59289 11.4485 2.92688 11.3954 3.24229 11.2995V20.4156C3.24229 20.7378 3.41423 21.038 3.6916 21.199L12.4106 26.2686C12.823 25.7838 13.4338 25.4752 14.1158 25.4752C14.8581 25.4752 15.515 25.8408 15.9244 26.401C15.9316 26.4113 15.9394 26.4209 15.9466 26.4309C15.9754 26.4719 16.0023 26.5138 16.0284 26.557L16.0583 26.6061C16.0814 26.6459 16.1027 26.6864 16.123 26.7274C16.1341 26.7494 16.1446 26.7717 16.1551 26.7941C16.1725 26.8321 16.1889 26.8707 16.2045 26.9099C16.2156 26.9379 16.2255 26.966 16.2354 26.9944C16.2479 27.0302 16.2602 27.0664 16.2707 27.1029C16.2809 27.1376 16.289 27.1726 16.2977 27.2076L16.3201 27.3063C16.3288 27.35 16.3345 27.3943 16.3405 27.439C16.3438 27.4655 16.3489 27.4915 16.3513 27.518C16.3582 27.5904 16.3624 27.6634 16.3624 27.7376C16.3624 27.8559 16.3507 27.9708 16.333 28.0842L16.3267 28.1264C16.1431 29.1892 15.2226 30 14.1158 30C13.1288 30 12.2904 29.3548 11.9894 28.4619L2.64322 23.0279C1.71614 22.4892 1.14552 21.4931 1.14552 20.4156V11.2636ZM25.6106 5.7171C26.8495 5.7171 27.8571 6.73185 27.8571 7.97948C27.8571 8.6582 27.5576 9.26632 27.0861 9.6814V20.4156C27.0861 21.4931 26.5155 22.4892 25.5884 23.0279L17.5584 27.6966C17.5494 26.9328 17.293 26.2297 16.8677 25.6598L24.5401 21.199C24.8174 21.038 24.9894 20.7378 24.9894 20.4156V10.152C24.0521 9.87988 23.3641 9.00992 23.3641 7.97948C23.3641 7.47784 23.5291 7.01541 23.8047 6.63985C23.8089 6.63382 23.8134 6.62809 23.8176 6.62205C23.8697 6.55267 23.9254 6.48571 23.9847 6.42266L23.9928 6.41391C24.1159 6.28481 24.2537 6.17108 24.4041 6.07425C24.4196 6.064 24.4361 6.05465 24.452 6.04469C24.5116 6.0088 24.5724 5.97501 24.6353 5.94454C24.6536 5.9358 24.6719 5.92614 24.6904 5.9177C24.7692 5.8821 24.8495 5.84922 24.9328 5.82298C24.9331 5.82298 24.9331 5.82298 24.9331 5.82268L25.0961 5.77742C25.2614 5.73814 25.4336 5.7171 25.6106 5.7171ZM22.5404 10.5949V18.077C22.5404 18.9633 22.0668 19.7892 21.3048 20.2323V20.2326L15.2999 23.72L14.7458 24.0259L14.7524 23.3858V20.733L19.6948 17.8595V15.2279L15.4877 14.0222L22.5404 10.5949ZM5.69132 10.5904L8.53693 11.9961V17.8593L13.4044 20.6894V23.9985L6.92691 20.2327C6.16489 19.7892 5.69132 18.9633 5.69132 18.0771V10.5904ZM12.8802 5.53771C13.6305 5.10182 14.601 5.10182 15.3514 5.53771L21.9391 9.38647L21.3131 9.6848L18.8691 10.8923L14.1158 8.12859L9.3624 10.8923L6.30231 9.38014L6.89031 9.02359C6.8957 9.01876 6.91098 9.0085 6.92745 8.99915L12.8802 5.53771ZM14.1157 0C14.633 0 15.15 0.134536 15.6134 0.403911L23.6911 5.10062C23.0965 5.50422 22.6364 6.09094 22.3833 6.7781L14.565 2.23282C14.4288 2.15318 14.2733 2.11156 14.1157 2.11156C13.9582 2.11156 13.803 2.15318 13.6664 2.23282L4.45713 7.58743C4.47929 7.71502 4.49307 7.84534 4.49307 7.97957C4.49307 8.953 3.87842 9.78224 3.02024 10.1008C3.01365 10.1032 3.00676 10.1059 3.00017 10.108C2.93218 10.1325 2.86329 10.1536 2.79259 10.1714L2.75036 10.1822C2.68566 10.1973 2.61946 10.2091 2.55296 10.2184L2.49875 10.2266C2.41578 10.2359 2.3319 10.242 2.24654 10.242C2.15518 10.242 2.06532 10.2347 1.97635 10.2239C1.95239 10.2208 1.92903 10.2166 1.90536 10.213C1.83707 10.2024 1.76997 10.1889 1.70377 10.1723C1.6834 10.1671 1.66304 10.1623 1.64267 10.1566C1.46744 10.1068 1.30089 10.0377 1.14543 9.94935L1.01191 9.86708C0.403138 9.46213 0 8.76789 0 7.97957C0 6.73194 1.00795 5.71719 2.24654 5.71719C2.56794 5.71719 2.87287 5.78657 3.14934 5.90934L12.618 0.403911C13.0814 0.134536 13.5987 0 14.1157 0Z" fill="var(--logo-color)"/>
<path d="M34.2857 6.68412H37.2879V13.9286H39.7588V6.68412H42.7609V4.28577H34.2857V6.68412Z" fill="var(--logo-color)"/>
<path d="M50.4137 4.28577V8.03165H46.4849V4.28577H44.0264V13.9286H46.4849V10.3435H50.4137V13.9286H52.8846V4.28577H50.4137Z" fill="var(--logo-color)"/>
<path d="M54.7425 13.9286H62.1429V11.5426H57.2134V10.3064H61.2657V8.06873H57.2134V6.68412H62.1429V4.28577H54.7425V13.9286Z" fill="var(--logo-color)"/>
<path d="M39.0854 22.0952H41.3995V22.3571C40.9465 23 40.2119 23.4166 39.3548 23.4166C37.91 23.4166 36.759 22.2976 36.759 20.8928C36.759 19.4881 37.91 18.369 39.3548 18.369C40.1874 18.369 40.922 18.7381 41.3995 19.3214L43.3953 18.0119C42.477 16.8452 40.9955 16.0714 39.3548 16.0714C36.5876 16.0714 34.2857 18.2381 34.2857 20.8928C34.2857 23.5476 36.5876 25.7143 39.3548 25.7143C40.3343 25.7143 41.3016 25.3571 41.7669 24.6666V25.5357H43.6892V20.119H39.0854V22.0952Z" fill="var(--logo-color)"/>
<path d="M51.4951 16.25V21.3333C51.4951 22.6786 50.8217 23.4166 49.536 23.4166C48.2626 23.4166 47.6015 22.6786 47.6015 21.3333V16.25H45.1526V21.4762C45.1526 23.869 46.6709 25.7143 49.536 25.7143C52.3889 25.7143 53.9317 23.869 53.9317 21.4762V16.25H51.4951Z" fill="var(--logo-color)"/>
<path d="M55.6326 16.25V25.5357H58.0815V16.25H55.6326Z" fill="var(--logo-color)"/>
<path d="M59.9157 25.5357H66.9316V23.2381H62.3523V16.25H59.9157V25.5357Z" fill="var(--logo-color)"/>
<path d="M68.1924 25.5357H72.6248C75.6123 25.5357 77.1429 23.4286 77.1429 20.8928C77.1429 18.369 75.6123 16.25 72.6248 16.25H68.1924V25.5357ZM72.4411 18.5595C73.8982 18.5595 74.6695 19.5 74.6695 20.8928C74.6695 22.2857 73.8982 23.2381 72.4411 23.2381H70.6412V18.5595H72.4411Z" fill="var(--logo-color)"/>
</svg>